<?xml version="1.0" encoding="utf-8"?>
<!DOCTYPE svg PUBLIC "-//W3C//DTD SVG 1.0//EN" "http://www.w3.org/TR/2001/REC-SVG-20010904/DTD/svg10.dtd">
<svg version="1.0" xmlns="http://www.w3.org/2000/svg" width="2000px" height="2000px" viewBox="0 0 2000 2000" preserveAspectRatio="xMidYMid meet">
 <rect width="2000" height="2000" fill="white"/>
 <g fill="#000000" stroke="#000000" stroke-width="5">
  <path d="M 448 1842 c -20.7 -0.9 -45.7 -3.5 -57.5 -6 -2.2 -0.5 -6.7 -1.4 -10 -2.1 -7.8 -1.6 -14.5 -4.5 -16.2 -6.8 -1 -1.5 -3.1 -2 -10.5 -2.5 -8.6 -0.6 -20.6 -1.7 -33.8 -3.2 -3 -0.3 -5.9 -1 -6.5 -1.5 -0.5 -0.5 -2.4 -0.9 -4.1 -0.9 -1.8 0 -3.6 -0.4 -3.9 -1 -0.3 -0.5 -1.7 -1 -3.1 -1 -1.3 0 -2.4 -0.4 -2.4 -1 0 -0.5 -0.7 -1 -1.6 -1 -2.1 0 -7.1 -3.6 -10.7 -7.7 -2.5 -2.8 -3.5 -3.2 -10.5 -3.8 -12 -1.1 -25.1 -9 -29.7 -17.9 -0.9 -1.7 -1.5 -5.6 -1.5 -10 0 -10.1 3.8 -17 14.5 -26.6 11 -9.8 29.9 -22.6 44.5 -30.2 3 -1.6 8.2 -4.5 11.5 -6.3 3.3 -1.9 6.9 -3.9 8 -4.4 7.9 -3.5 12.3 -5.7 14.4 -7.3 1.3 -1 3.6 -1.8 5.1 -1.8 1.6 0 3.6 -1 5.1 -2.6 1.3 -1.4 4 -3.3 5.9 -4.1 1.9 -0.9 4.7 -2.5 6.2 -3.5 1.4 -1 3.2 -1.8 3.9 -1.8 0.7 0 2 -0.6 2.8 -1.4 0.9 -0.8 5.2 -3.3 9.6 -5.6 4.4 -2.3 8.7 -4.8 9.5 -5.5 0.8 -0.7 3.3 -2.3 5.5 -3.6 2.2 -1.2 5.7 -3.2 7.7 -4.3 5.8 -3.3 17.9 -10.7 22.5 -13.8 2.3 -1.5 5 -2.8 6 -2.8 2.1 0 14.3 -11.8 14.3 -13.9 0 -1 -1.3 -1.2 -5.2 -0.7 -12.5 1.4 -79.8 1.8 -96.8 0.7 -40 -2.8 -67.1 -5.8 -90.5 -10.1 -3.3 -0.6 -8.5 -1.6 -11.5 -2.1 -3 -0.5 -7.6 -1.4 -10.2 -1.9 -2.7 -0.6 -6.9 -1.4 -9.5 -2 -7.8 -1.5 -21 -4.4 -27.3 -6 -2.5 -0.6 -5.7 -1.4 -7.3 -1.7 -1.5 -0.3 -3 -0.9 -3.3 -1.4 -0.3 -0.5 -1.4 -0.9 -2.5 -0.9 -1 0 -2.7 -0.4 -3.7 -0.9 -0.9 -0.5 -3.2 -1.6 -5 -2.3 -1.7 -0.7 -3.2 -1.6 -3.2 -2 0 -0.5 -0.6 -0.8 -1.3 -0.8 -1.5 0 -6.9 -5.5 -8.6 -8.7 -0.6 -1.2 -1.1 -4.7 -1.1 -7.8 0 -5.9 2.7 -12.1 7 -16 2.7 -2.5 2.5 -3.9 -0.7 -5.6 -3.4 -1.7 -11.4 -6.9 -13 -8.5 -4.8 -4.7 -6.7 -13.9 -3.8 -19.3 2.2 -4.3 10.9 -11.7 17.3 -14.6 3.1 -1.5 6.5 -3.1 7.4 -3.6 1 -0.5 2.7 -0.9 3.7 -0.9 1.1 0 2.3 -0.4 2.6 -1 0.3 -0.5 1.6 -1 2.7 -1 1.2 0 3.7 -1.2 5.6 -2.7 2.8 -2.1 5.2 -2.8 11.1 -3.4 4.2 -0.4 9.9 -1.3 12.6 -1.9 2.8 -0.6 7 -1.4 9.5 -1.7 2.5 -0.3 4.9 -0.9 5.4 -1.4 0.6 -0.5 2.1 -0.9 3.5 -0.9 1.5 0 3.5 -0.7 4.5 -1.5 1.2 -0.9 4.2 -1.5 7.7 -1.5 3.2 0 6.1 -0.4 6.4 -1 0.3 -0.5 3.7 -1 7.5 -1 3.8 0 7.2 -0.4 7.5 -1 0.3 -0.5 4.3 -1 8.9 -1 4.5 0 8.6 -0.4 9.2 -0.9 1 -1 9.9 -1.7 31.4 -2.7 7.4 -0.3 13.9 -1 14.4 -1.5 0.6 -0.5 2.5 -0.9 4.3 -0.9 3.3 0 3.3 0 0.4 -5.7 -3.4 -6.7 -8.2 -17.3 -10 -22.3 -1.7 -4.7 -3.1 -8.1 -4.2 -10.2 -0.5 -1 -0.9 -2.7 -0.9 -3.7 0 -1.1 -0.5 -2.3 -1 -2.6 -0.5 -0.3 -1 -1.9 -1 -3.5 0 -1.6 -0.4 -3.2 -1 -3.5 -0.5 -0.3 -1 -1.9 -1 -3.5 0 -1.6 -0.5 -3.2 -1 -3.5 -0.6 -0.3 -1 -1.9 -1 -3.4 0 -1.5 -0.4 -3.1 -0.9 -3.6 -0.5 -0.6 -1.1 -2.8 -1.4 -5 -0.4 -2.2 -1.1 -6.5 -1.7 -9.5 -3.4 -17.1 -4.6 -34.4 -5.1 -73 -0.3 -23.1 0.4 -34.8 3.1 -53.5 0.6 -3.8 1.3 -9.2 1.6 -12 0.3 -2.7 1 -5.4 1.5 -6 0.5 -0.5 0.9 -2.7 0.9 -5 0 -2.3 0.4 -4.5 0.9 -5 0.5 -0.6 1.2 -2.9 1.5 -5.2 1.5 -10.5 1.9 -12.3 2.7 -12.9 0.5 -0.3 0.9 -2 0.9 -3.9 0 -1.9 0.5 -3.7 1 -4 0.6 -0.3 1 -2.1 1 -4 0 -1.9 0.5 -3.7 1 -4 0.5 -0.3 1 -1.9 1 -3.5 0 -1.6 0.5 -3.2 1 -3.5 0.6 -0.3 1 -1.6 1 -2.7 0 -2 1.1 -6.2 3 -11.3 0.4 -1.1 1.5 -4.7 2.5 -8 0.9 -3.3 2.1 -6.5 2.5 -7 0.5 -0.6 1.6 -3.3 2.5 -6 0.9 -2.8 2 -5.9 2.4 -7 0.5 -1.1 1.4 -3.6 2.1 -5.5 0.7 -1.9 1.6 -4.4 2 -5.5 5.2 -13 10 -25.8 10 -27 0 -0.8 0.4 -2.4 1 -3.5 0.5 -1.1 1.4 -2.9 2 -4 0.6 -1.1 1 -2.4 1 -2.9 0 -0.6 1.1 -2.7 2.5 -4.7 1.4 -2.1 2.8 -4.9 3.1 -6.3 0.7 -3.1 1 -4 6.1 -15 4.7 -10.4 26.1 -53.1 29.3 -58.6 1.3 -2.2 2.9 -5.2 3.7 -6.6 0.7 -1.5 2 -3.2 2.8 -3.9 0.8 -0.7 1.5 -1.9 1.5 -2.6 0 -1.7 3.7 -8.3 6.1 -11 1 -1.1 1.9 -2.5 1.9 -3.2 0 -1.5 3.7 -7.7 8.2 -13.7 2.1 -2.7 3.8 -5.3 3.8 -5.7 0 -0.3 2.5 -4.7 5.5 -9.6 3 -5 5.5 -9.6 5.5 -10.4 0 -0.7 2.2 -4.2 5 -7.8 2.7 -3.6 4.9 -7.1 5 -7.8 0 -1.2 4.9 -8.6 13.9 -21.2 2.2 -3 4 -5.8 4.1 -6.2 0 -0.8 11.8 -18.8 44.3 -68 11.9 -18.1 21.7 -33.4 21.7 -34.1 0 -0.7 0.4 -1.7 0.9 -2.3 0.5 -0.5 1.2 -3.8 1.5 -7.4 1.6 -20.8 7.3 -45.8 11.8 -52.1 0.7 -0.9 4 -5.5 7.2 -10.1 3.4 -4.8 14 -16.4 25.1 -27.6 16.6 -16.6 19.4 -19.8 19.9 -23 0.7 -4.8 2.5 -16.2 3.7 -23.7 0.5 -3.3 1.2 -8 1.5 -10.5 0.3 -2.5 1 -4.9 1.5 -5.4 0.5 -0.6 0.9 -2.7 0.9 -4.7 0 -2.1 0.5 -4.1 1 -4.4 0.6 -0.3 1 -2.1 1 -4 0 -1.9 0.5 -3.7 1 -4 0.6 -0.3 1 -1.9 1 -3.5 0 -1.6 0.5 -3.2 1 -3.5 0.6 -0.3 1 -1.9 1 -3.5 0 -1.6 0.5 -3.2 1 -3.5 0.6 -0.3 1 -1.7 1 -3 0 -1.3 0.5 -2.7 1 -3 0.6 -0.3 1 -1.7 1 -3 0 -1.3 0.5 -2.7 1 -3 0.6 -0.3 1 -1.5 1 -2.6 0 -1 0.4 -2.7 0.9 -3.7 0.5 -0.9 1.3 -2.8 1.9 -4.2 0.5 -1.4 1.6 -4.1 2.4 -6 4.1 -9.7 4.1 -9.6 2.9 -19.4 -2.1 -18.2 -0.7 -47.3 2.5 -52.1 0.8 -1.1 1.4 -2.8 1.4 -3.9 0 -1.1 0.5 -3.3 1 -5 0.6 -1.7 2.1 -6.5 3.4 -10.6 4.1 -12.7 7.1 -19.7 15.7 -37.3 2.7 -5.5 4.9 -10.6 4.9 -11.3 0 -0.8 0.4 -2.2 0.9 -3.2 2.3 -4.3 14.1 -29.4 14.1 -29.9 0 -0.3 1.1 -2.1 2.5 -3.9 1.4 -1.8 3.9 -5.9 5.7 -9.1 1.7 -3.2 5.6 -9.8 8.6 -14.8 3 -4.9 6.1 -10.2 6.9 -11.6 0.7 -1.5 2 -3.2 2.8 -3.9 0.8 -0.7 1.5 -1.8 1.5 -2.4 0 -0.7 1.3 -2.5 3 -4.1 1.7 -1.6 3 -3.5 3 -4.2 0 -1.7 30.4 -32.3 32.1 -32.3 0.6 0 4.4 -3.1 8.3 -6.8 7.2 -6.8 19.5 -16.2 21.3 -16.2 0.5 0 2.2 -1.4 3.8 -3 1.6 -1.7 3.4 -3 4 -3 0.7 0 2 -0.9 3 -2 1 -1.1 2.4 -2 3 -2 0.7 0 2.3 -0.8 3.6 -1.9 5.2 -4 27.1 -15.4 32.4 -16.7 1.3 -0.3 2.9 -1.2 3.6 -2 0.6 -0.8 2 -1.4 3 -1.4 1 0 2 -0.4 2.3 -0.9 0.4 -0.5 2.5 -1.2 4.9 -1.6 2.3 -0.4 4.9 -1.3 5.7 -2 0.8 -0.7 5.2 -2.5 9.6 -3.9 4.5 -1.5 9 -3.6 9.9 -4.6 1 -1.1 3 -2 4.5 -2 1.4 0 3 -0.4 3.6 -0.9 0.5 -0.5 5.3 -1.4 10.8 -2 7 -0.7 10.4 -1.5 11.8 -2.8 1.5 -1.4 4.5 -2 12.7 -2.5 5.8 -0.4 13.5 -1.2 17.1 -1.7 3.6 -0.6 9.1 -1.3 12.3 -1.7 5 -0.6 6.2 -1.2 8.3 -3.9 1.3 -1.7 2.4 -3.9 2.4 -4.9 0 -0.9 0.4 -2.4 0.9 -3.4 0.8 -1.6 2.1 -4.7 4 -9.4 2.3 -6.1 7.6 -15.9 9.2 -17.4 1.1 -0.9 1.9 -2.5 1.9 -3.4 0 -3.5 31.4 -36 34.7 -36 0.5 0 2.2 -1.4 3.8 -3 1.6 -1.7 3.4 -3 4 -3 0.7 0 2 -0.9 2.9 -1.9 1.6 -1.8 13.8 -8.1 26.7 -13.9 2.5 -1.1 6.8 -2.4 9.5 -2.7 5.4 -0.8 7.9 -1.9 10.9 -4.5 2 -1.8 3.5 -2.1 18.5 -4 12.3 -1.6 45.8 -2.4 51.5 -1.1 2.7 0.6 7.5 1.6 10.5 2.2 5.2 1.1 24.2 7 28.5 8.8 1.1 0.5 3.8 1.7 6 2.6 7.6 3.2 24.6 12.1 25.5 13.3 0.3 0.4 1.7 1.3 3.3 2.1 1.5 0.8 2.7 1.8 2.7 2.3 0 0.4 0.7 0.8 1.5 0.8 0.9 0 6.4 4.8 12.3 10.8 9.8 9.7 16.7 18.7 21.8 28.2 1.1 1.9 2.1 3.7 2.4 4 1.1 1 9 17.5 9 18.8 0 0.6 0.5 1.2 1 1.2 0.6 0 1 1.1 1 2.4 0 1.4 0.5 2.8 1 3.1 0.6 0.3 1 1.7 1 3 0 1.3 0.5 2.7 1 3 0.6 0.3 1 1.7 1 3 0 1.3 0.5 2.7 1 3 0.6 0.3 1 2.1 1 4 0 1.9 0.4 3.7 1 4 0.5 0.3 1 2.1 1 3.9 0 1.7 0.4 3.6 0.9 4.1 1.4 1.5 2.2 11.7 2 28 -0.1 15.1 -0.1 15.1 4.7 19 4.7 3.9 8.5 7.2 18.7 16.5 9.6 8.7 19 22 26.6 37.5 1.9 3.9 4 7.7 4.7 8.5 1.2 1.4 5 11.3 6.1 15.5 0.2 1.1 0.8 2.9 1.3 4 1 2.4 2 6.6 2.7 11.8 0.4 2.8 1.4 4.4 4.2 6.5 10 7.5 27.3 28.3 33.3 40.2 1.2 2.5 2.5 4.7 2.8 5 1.7 1.7 13 24 13 25.7 0 0.7 0.5 1.3 1 1.3 0.6 0 1 0.6 1 1.3 0 0.8 0.6 2.7 1.4 4.3 2.8 5.8 5.5 12.4 8.4 20.4 1.1 3 2.8 7.5 3.7 10 2.1 5.4 4.5 12.9 7.4 23 1.2 4.1 2.6 8.9 3.2 10.6 0.5 1.7 0.9 4.2 0.9 5.7 0 1.4 0.5 2.9 1 3.2 0.6 0.3 1 2.4 1 4.5 0 2.1 0.5 4.2 1 4.5 0.6 0.3 1 2.3 1 4.4 0 3.7 0.2 3.9 6.8 7.2 3.7 1.9 6.9 3.7 7 4.1 0.2 0.5 0.8 0.8 1.4 0.8 0.5 0 2.9 1.4 5.3 3 4.1 2.8 4.9 3 13.9 3 5.2 0 11.6 0.4 14.3 1 2.6 0.5 8.9 1.6 13.8 2.5 8.3 1.5 20.2 4.6 25 6.5 1.1 0.4 4.7 1.8 8 3.1 3.3 1.2 7.5 3.1 9.3 4.1 1.8 1 3.9 1.8 4.7 1.8 0.8 0 1.5 0.5 1.5 1 0 0.6 0.9 1 2 1 1.1 0 2 0.4 2 0.9 0 0.5 0.8 1.1 1.8 1.4 2.2 0.7 7.1 3.7 9.6 6 1.1 0.9 2.4 1.7 2.9 1.7 1.9 0 11.9 10.9 11.5 12.7 -0.6 3.3 -10.1 2.9 -19.5 -0.8 -8.6 -3.4 -12.7 -5.1 -14.5 -6 -1 -0.5 -2.7 -0.9 -3.8 -0.9 -1.1 0 -2 -0.4 -2 -1 0 -0.5 -1.1 -1 -2.4 -1 -1.4 0 -2.8 -0.4 -3.1 -1 -0.3 -0.5 -1.6 -1 -2.9 -1 -1.2 0 -2.7 -0.5 -3.3 -1.1 -1.6 -1.6 -19.9 -1.7 -21.5 -0.1 -0.6 0.6 -2 1.2 -2.9 1.2 -1.8 0 -4.5 2.6 -3.2 3.2 2.6 1.1 16.3 23.9 16.3 27.1 0 1 0.5 1.7 1 1.7 0.6 0 1 0.9 1 1.9 0 1.1 0.4 2.3 1 2.6 0.5 0.3 1 1.7 1 3 0 1.3 0.5 2.7 1 3 0.6 0.3 1 1.6 1 2.9 0 2.8 1.8 4.6 4.7 4.6 1.2 0 3.2 0.4 4.5 0.9 1.3 0.5 5.7 1.9 9.8 3.1 8.5 2.5 9.9 3.1 23 9.4 9.4 4.4 18 9.2 19 10.5 0.3 0.3 1.7 1.2 3.3 2 1.5 0.8 2.7 1.8 2.7 2.3 0 0.4 0.4 0.8 1 0.8 2.5 0 16 13.5 16 16 0 2.3 -4.5 3.9 -6.3 2.1 -0.6 -0.6 -1.9 -1.1 -2.9 -1.1 -1 0 -2.6 -0.4 -3.6 -0.9 -0.9 -0.5 -3.7 -1.8 -6.2 -2.9 -2.5 -1.1 -7.6 -3.4 -11.5 -5.2 -3.8 -1.8 -8 -3.6 -9.2 -4.1 -1.3 -0.5 -3.3 -1.3 -4.5 -1.8 -1.3 -0.5 -5.7 -1.9 -9.8 -3.1 -4.1 -1.2 -8.6 -2.6 -10 -3 -1.4 -0.5 -4.3 -1.1 -6.5 -1.5 -2.2 -0.3 -4.8 -0.8 -5.7 -1.1 -1.5 -0.5 -1.8 0.1 -1.8 3.7 0 2.4 0.5 6.9 1.2 10.1 0.9 4.4 0.9 6.1 0.1 6.6 -0.8 0.5 -1.2 6.7 -1.4 19.1 -0.2 18.1 -0.2 18.5 1.9 19.4 1.2 0.6 2.2 1.4 2.2 1.9 0 0.4 0.6 0.8 1.3 0.8 1.4 0.1 11.4 6.8 18.4 12.5 9.2 7.5 26.6 26 28.7 30.5 0.5 1.1 1.3 2 1.8 2 0.4 0 0.8 0.8 0.8 1.8 0 1 0.5 2.3 1.1 2.9 1.5 1.5 0.2 5.1 -2.1 5.8 -2 0.6 -9.5 -2.5 -12.6 -5.3 -1.1 -0.9 -4.8 -3.7 -8.4 -6.2 -3.6 -2.4 -6.6 -4.8 -6.8 -5.2 -0.2 -0.4 -0.8 -0.8 -1.3 -0.8 -0.6 0 -1.9 -0.9 -3.1 -2 -1.2 -1.1 -2.8 -2 -3.5 -2 -0.7 0 -1.3 -0.4 -1.3 -1 0 -0.5 -0.7 -1 -1.5 -1 -0.8 0 -1.5 -0.3 -1.5 -0.7 0 -0.5 -1 -1.3 -2.3 -1.9 -1.2 -0.6 -4.9 -2.5 -8.2 -4.2 -7.9 -3.9 -13.1 -6.2 -14.4 -6.2 -0.5 0 -4.1 3.7 -8 8.3 -7.1 8.4 -8.7 10 -15.6 15.2 -10 7.6 -28.1 16 -41.5 19.4 -10.7 2.8 -10 1.6 -10 16.7 0 7.8 0.4 13.5 1 13.9 0.6 0.3 1 1.3 1 2.1 0 0.8 2.3 4.8 5 8.9 2.8 4.1 5 7.8 5 8.4 0 0.5 0.4 1.1 0.8 1.3 0.5 0.1 2.2 2.8 3.9 5.8 1.7 3 5.1 9.1 7.5 13.5 7.7 13.8 18.8 35.7 18.8 37.1 0 0.8 0.5 1.4 1 1.4 0.6 0 1 0.9 1 2 0 1.1 0.5 2 1 2 0.6 0 1 0.6 1 1.2 0 0.7 2 5.3 4.4 10.3 2.4 4.9 5.1 10.7 6 12.8 3.1 7.2 4.4 10.2 6.4 14.7 1.1 2.5 3.4 8.1 5.2 12.5 1.7 4.4 3.6 8.8 4.1 9.7 0.5 1 0.9 2.7 0.9 3.8 0 1.1 0.5 2 1 2 0.6 0 1 0.9 1 1.9 0 1.1 0.4 2.3 1 2.6 0.6 0.3 1 1.7 1 3.1 0 1.3 0.5 2.4 1 2.4 0.6 0 1 0.9 1 2 0 1.1 0.4 2.8 0.9 3.8 0.5 0.9 1.4 3.1 2.1 4.7 0.7 1.7 1.6 3.8 2.1 4.7 0.5 1 0.9 2.7 0.9 3.8 0 1.1 0.5 2 1 2 0.6 0 1 1.1 1 2.4 0 1.4 0.4 2.8 1 3.1 0.5 0.3 1 1.6 1 2.9 0 1.2 0.4 2.6 0.8 3.2 0.5 0.5 2.3 5.6 4.1 11.4 1.9 5.8 3.7 11.4 4.1 12.5 0.5 1.1 1.1 3.1 1.5 4.5 0.3 1.4 1.1 4 1.6 5.8 0.5 1.7 1.3 4.7 1.8 6.5 2.2 7.6 8.3 31.6 9.2 36.2 0.5 2.8 1.4 7 2 9.5 1.5 6.8 2.9 13.9 3.9 20.3 0.6 3.1 1.5 8.5 2.1 12 0.6 3.4 1.2 9.4 1.5 13.2 0.3 3.9 0.9 7.9 1.4 9 1.4 3.1 2.1 21 2.1 56.5 0 35.9 -1.3 55.1 -5.1 78 -0.6 3.6 -1.3 8.8 -1.6 11.5 -0.3 2.8 -1 5.4 -1.5 6 -0.5 0.5 -0.9 2.6 -0.9 4.7 0 2 -0.4 4.7 -0.9 6 -0.5 1.3 -1.4 4.8 -2.1 7.8 -1.7 8.1 -8 30.9 -11 40 -0.4 1.4 -1.3 4.5 -2 7 -2.4 8.6 -3.3 11.5 -4.1 13.5 -0.8 2 -1.2 4.1 -3 13 -1 5.5 -0.2 21.2 1.2 22.1 0.5 0.3 0.9 1.8 0.9 3.4 0 1.6 0.5 3.2 1 3.5 0.6 0.3 1 1.5 1 2.6 0 1 0.4 2.7 0.9 3.7 0.5 0.9 2.6 5.3 4.8 9.7 4.4 9 11.5 22.7 12.3 23.5 1 1 4.1 6.5 4.7 8.3 0.3 0.9 0.9 1.7 1.4 1.7 0.5 0 0.9 0.6 0.9 1.3 0 0.7 0.9 2.3 2 3.5 1.1 1.2 2 2.5 2 2.9 0 0.5 3.3 4 7.3 7.9 10.8 10.5 19.6 16 36.2 22.5 1.1 0.4 3.1 1 4.5 1.4 2.9 0.7 8.3 2.2 12.5 3.5 8 2.4 26.7 7.2 35.5 9.1 10.3 2.3 15.9 3.5 26.3 5.8 2.3 0.6 6.2 1.5 8.7 2.1 2.5 0.6 5.9 1.4 7.5 1.6 1.7 0.3 3.9 0.9 5 1.4 1.1 0.5 3.6 1.1 5.5 1.5 1.9 0.3 5 0.8 6.8 1.2 1.8 0.3 3.5 0.9 3.8 1.4 0.3 0.5 1.8 0.9 3.4 0.9 1.6 0 3.2 0.5 3.5 1 0.3 0.6 1.9 1 3.5 1 1.6 0 3.2 0.5 3.5 1 0.3 0.6 1.9 1 3.5 1 1.6 0 3.2 0.5 3.5 1 0.3 0.6 1.9 1 3.5 1 1.6 0 3.2 0.5 3.5 1 0.3 0.6 1.7 1 3 1 1.3 0 2.7 0.5 3 1 0.3 0.6 1.7 1 3 1 1.3 0 2.7 0.5 3 1 0.3 0.6 1.7 1 3.1 1 1.3 0 2.4 0.5 2.4 1 0 0.6 1.1 1 2.4 1 1.4 0 2.8 0.5 3.1 1 0.3 0.6 1.5 1 2.6 1 1 0 2.7 0.4 3.7 0.9 0.9 0.5 6.4 2.8 12.2 5.1 9.5 3.7 40.8 18.6 42 20 0.3 0.3 2.4 1.5 4.8 2.8 2.3 1.2 6.1 3.2 8.5 4.5 2.3 1.2 4.4 2.5 4.5 3 0.2 0.4 1.2 0.7 2.3 0.7 1 0 1.9 0.4 1.9 0.9 0 0.5 0.8 1.1 1.8 1.4 1.6 0.5 6.2 3.2 8.7 5 8.4 6.1 10.9 8.4 13.5 12.1 1.6 2.5 3 5.1 3 6 0 0.8 0.5 1.8 1 2.1 0.5 0.3 1 3.1 1 6.1 0 6.1 -2.2 11.3 -6.5 15.6 -3.5 3.5 -14.6 8.8 -18.5 8.8 -2 0 -4.8 1.3 -8.3 3.9 -6.4 4.8 -16.7 10.2 -22.7 12 -2.5 0.7 -5.3 1.7 -6.2 2.2 -1 0.5 -3.1 0.9 -4.7 0.9 -1.7 0 -3.3 0.5 -3.6 1 -0.3 0.6 -2.1 1 -4 1 -1.9 0 -3.7 0.5 -4 1 -0.3 0.6 -2.8 1 -5.4 1 -2.6 0 -5.1 0.4 -5.7 0.9 -0.8 0.9 -4.5 1.4 -20.5 2.7 -5.9 0.5 -6.7 0.8 -8.3 3.5 -0.9 1.6 -2.7 3.4 -3.9 4 -1.2 0.7 -2.4 1.5 -2.7 1.8 -0.5 0.6 -3.1 1.9 -8 3.9 -4.5 1.8 -15.8 4.6 -25 6.2 -3.6 0.6 -7.4 1.3 -8.5 1.6 -5 1.1 -30.2 4.4 -41 5.4 -6.6 0.6 -16.5 1.5 -22 2 -10 1 -100.1 1.5 -102.6 0.5 -0.8 -0.2 -7.5 -0.9 -14.9 -1.5 -27.1 -2 -48.3 -5.2 -74.7 -11.1 -2.7 -0.5 -6.3 -1.3 -8.1 -1.6 -1.8 -0.3 -3.5 -0.9 -3.8 -1.4 -0.3 -0.5 -1.8 -0.9 -3.4 -0.9 -1.6 0 -3.2 -0.4 -3.5 -1 -0.3 -0.5 -1.9 -1 -3.5 -1 -1.6 0 -3.2 -0.4 -3.5 -1 -0.3 -0.5 -1.7 -1 -3 -1 -1.3 0 -2.7 -0.4 -3 -1 -0.3 -0.5 -1.7 -1 -3 -1 -1.3 0 -2.7 -0.4 -3 -1 -0.3 -0.5 -1.5 -1 -2.6 -1 -1 0 -2.8 -0.4 -3.9 -1 -1.1 -0.6 -2.9 -1.5 -4 -2 -1.1 -0.5 -2.7 -1 -3.5 -1 -0.8 0 -1.5 -0.4 -1.5 -1 0 -0.5 -0.6 -1 -1.2 -1 -1.6 0 -22.2 -10.2 -22.6 -11.2 -0.2 -0.5 -0.8 -0.8 -1.3 -0.8 -1 0 -14.7 -9 -17 -11.2 -0.8 -0.7 -3.2 -2.6 -5.3 -4.2 -5 -3.7 -16.9 -15.7 -22.1 -22.1 -2.2 -2.7 -4.7 -5.8 -5.7 -6.8 -0.9 -1 -3.1 -4.7 -4.9 -8 -1.7 -3.4 -3.3 -6.4 -3.5 -6.6 -0.2 -0.2 -4 2.1 -8.6 5.1 -13.7 9 -34.9 20.8 -37.5 20.8 -0.7 0 -1.3 0.5 -1.3 1 0 0.6 -0.9 1 -2 1 -1.1 0 -2 0.5 -2 1 0 0.6 -0.9 1 -1.9 1 -1.1 0 -2.3 0.5 -2.6 1 -0.3 0.6 -1.5 1 -2.6 1 -1 0 -1.9 0.5 -1.9 1 0 0.6 -0.9 1 -2 1 -1.1 0 -2 0.5 -2 1 0 0.6 -0.7 1 -1.5 1 -0.8 0 -2.3 0.4 -3.3 0.9 -1.8 0.9 -6.2 2.8 -9.9 4.2 -2.1 0.8 -4.5 1.8 -9.8 4 -10.7 4.5 -49.3 15.7 -60 17.5 -1.6 0.3 -3.9 0.9 -5 1.4 -2 0.8 -5.4 1.6 -12.5 2.6 -1.9 0.3 -4.4 0.9 -5.5 1.4 -1.1 0.5 -4 1.1 -6.5 1.4 -2.5 0.3 -7.4 1 -11 1.6 -38.9 6.4 -82.6 9.4 -137 9.4 -51.9 0 -93.5 -2.5 -123 -7.4 -3.6 -0.6 -8.5 -1.3 -11 -1.6 -2.5 -0.3 -4.9 -1 -5.5 -1.5 -0.5 -0.5 -2.6 -0.9 -4.6 -0.9 -2.1 0 -4 -0.4 -4.3 -0.9 -0.3 -0.5 -2.2 -1.2 -4.1 -1.5 -1.9 -0.3 -5.1 -0.9 -7 -1.2 -1.9 -0.3 -3.8 -1 -4.1 -1.5 -0.3 -0.5 -1.5 -0.9 -2.8 -0.9 -1.2 0 -2.6 -0.4 -3.1 -0.9 -0.6 -0.5 -2.4 -1.2 -4.2 -1.6 -3 -0.6 -3.3 -0.3 -7.4 5.7 -2.3 3.5 -4.6 6.5 -5.1 6.6 -0.4 0.2 -0.8 0.9 -0.8 1.6 0 0.7 -1.3 2.7 -3 4.4 -1.6 1.8 -3 3.5 -3 4 0 1.1 -22.4 23.6 -26.7 26.9 -2.1 1.5 -4.5 3.5 -5.3 4.4 -1.7 1.7 -17.3 12.4 -24.2 16.4 -2.3 1.4 -9 4.8 -14.8 7.6 -5.8 2.8 -11.3 5.5 -12.2 6 -1 0.5 -2.5 0.9 -3.3 0.9 -0.8 0 -1.5 0.5 -1.5 1 0 0.6 -0.9 1 -1.9 1 -1.1 0 -2.3 0.5 -2.6 1 -0.3 0.6 -1.7 1 -3.1 1 -1.3 0 -2.4 0.5 -2.4 1 0 0.6 -0.9 1 -2 1 -1.1 0 -3 0.5 -4.3 1.2 -4.8 2.4 -5.7 2.8 -7.6 2.8 -1.1 0 -2.3 0.5 -2.6 1 -0.3 0.6 -1.7 1 -3 1 -1.3 0 -2.7 0.5 -3 1 -0.3 0.6 -1.7 1 -3 1 -1.3 0 -2.7 0.5 -3 1 -0.3 0.6 -1.9 1 -3.5 1 -1.6 0 -3.2 0.5 -3.5 1 -0.3 0.6 -1.9 1 -3.5 1 -1.6 0 -3.1 0.4 -3.4 0.9 -0.3 0.5 -2 1.1 -3.8 1.4 -1.8 0.3 -5.3 1.1 -7.8 1.7 -19.5 4.9 -45.5 9.5 -68 12.1 -26.6 3 -69 4.3 -100 2.9 z  m 69.5 -27.6 c 7.7 -0.3 14.4 -1 14.9 -1.5 0.6 -0.5 4.4 -0.9 8.6 -0.9 4.2 0 8 -0.4 8.5 -0.9 0.6 -0.5 6.9 -1.2 14 -1.4 7.2 -0.3 15.5 -1 18.5 -1.6 3 -0.6 7.3 -1.3 9.5 -1.7 2.2 -0.3 6.3 -1.6 9 -2.9 3.6 -1.6 7.9 -2.5 15 -3 7.4 -0.6 10.6 -1.2 12.4 -2.6 1.3 -1.1 3.2 -1.9 4.2 -1.9 1.1 0 2.7 -0.4 3.7 -0.9 0.9 -0.5 3.7 -1.5 6.2 -2.2 2.5 -0.7 5.6 -2.3 7.1 -3.6 1.6 -1.4 3.8 -2.3 6 -2.3 4.1 -0.1 12.1 -2.1 14 -3.6 0.8 -0.6 4.8 -2.6 8.9 -4.4 4.1 -1.7 8.2 -3.6 9 -4.1 0.8 -0.5 2.5 -1.3 3.7 -1.8 1.1 -0.6 2.4 -1.4 2.7 -2 0.4 -0.5 1.9 -1.6 3.4 -2.4 5.9 -3.1 7.9 -4.4 13.2 -8.3 7.8 -5.9 34.8 -33.7 40.1 -41.3 13 -18.7 21.9 -35.3 28.8 -53.6 1.2 -3.3 2.7 -6.8 3.2 -7.7 0.5 -1 0.9 -2.7 0.9 -3.7 0 -1.1 0.5 -2.3 1 -2.6 0.6 -0.3 1 -1.5 1 -2.6 0 -1 0.4 -2.7 0.9 -3.7 0.5 -0.9 1.4 -3.6 2 -5.9 3.5 -13.4 4.7 -18.4 5.9 -24.3 2.7 -12.5 6.2 -30.9 8.1 -42.5 2.4 -14.9 3.1 -19.6 4.5 -28.5 3.7 -24.2 5.8 -36.9 6.7 -42 2.2 -12 2.9 -15.8 4 -22.5 0.6 -3.8 1.5 -8.8 1.9 -11 0.5 -2.2 1.4 -6.7 2 -10 0.6 -3.3 1.6 -7.8 2 -10 0.5 -2.2 1.4 -6.5 2.1 -9.5 0.6 -3 1.5 -6.6 1.9 -8 0.4 -1.4 1.3 -5.2 2 -8.5 0.7 -3.3 1.6 -7.1 2 -8.5 0.4 -1.4 1.3 -4.4 1.9 -6.7 0.6 -2.4 1.6 -6.2 2.2 -8.5 0.6 -2.4 1.5 -5.4 1.9 -6.8 6 -19.8 9.5 -27.4 12.6 -27.8 1.7 -0.2 2.3 0.3 2.8 3 1.1 6.3 -1.5 31.4 -6.4 62.3 -0.6 3.3 -1.5 9.3 -2 13.3 -0.6 3.9 -1.5 10.7 -2.1 15 -1.1 8.3 -2.2 16 -3.8 28.7 -0.6 4.4 -1.5 11.6 -2.1 16 -0.6 4.4 -1.5 11.4 -2 15.5 -0.6 4.1 -1.5 10.7 -2 14.5 -0.5 3.9 -1.4 10.4 -1.9 14.5 -1.8 12.9 -3 21.3 -4.1 28 -0.6 3.6 -1.5 9 -2 12 -3.9 23.8 -10.8 56.3 -13.9 66 -0.9 2.8 -2.2 7.1 -4.1 14 -0.7 2.5 -1.6 5.4 -2 6.5 -0.4 1.1 -1.3 3.6 -2 5.5 -1.5 4.2 -2.9 7.9 -4.1 10.2 -0.5 1 -0.9 2.2 -0.9 2.6 0 0.9 7.8 3.8 14 5.2 1.9 0.5 6 1.5 9 2.3 32.1 8.4 74.5 12.5 139.2 13.3 40.2 0.6 40.8 0.5 43.4 -1.5 1.5 -1.2 3.4 -2.1 4.3 -2.1 5.8 0 21.9 -28.5 32.1 -56.5 1.2 -3.3 2.6 -6.8 3.1 -7.7 0.5 -1 0.9 -2.7 0.9 -3.7 0 -1.1 0.5 -2.3 1 -2.6 0.5 -0.3 1 -1.7 1 -3 0 -1.3 0.4 -2.6 0.9 -2.9 0.5 -0.3 1.1 -1.8 1.4 -3.3 0.3 -1.6 1.5 -6.2 2.7 -10.3 2.5 -8.6 2.8 -10 6.4 -27 3 -14 6.3 -32.1 7.7 -42 6.4 -44.9 8 -61.4 10 -101 2.2 -43.4 1.2 -83.3 -2 -87.3 -7.8 -9.5 -18 -19.8 -27.1 -27.3 -1.9 -1.6 -4.4 -3.7 -5.5 -4.8 -6 -5.5 -36.9 -26.6 -39.1 -26.6 -0.3 0 -2.5 -1.3 -4.9 -3 -2.4 -1.6 -4.6 -3 -5 -3 -0.4 0 -2.6 -1.3 -5 -3 -2.4 -1.6 -4.6 -3 -4.9 -3 -0.3 0 -2.9 -1.4 -5.8 -3.1 -26.3 -15.6 -55.3 -30.7 -144.3 -75.1 -70.3 -35.1 -72 -35.9 -81.5 -40.9 -4.7 -2.4 -8.7 -4.6 -9 -4.9 -0.3 -0.3 -1.8 -1.2 -3.5 -2 -1.6 -0.8 -4.9 -2.7 -7.2 -4.2 -2.3 -1.5 -4.4 -2.8 -4.7 -2.8 -1.7 0 -18.9 -12.7 -19.6 -14.4 -1.1 -2.9 0.3 -11.1 3 -18.1 0.4 -1.1 1.3 -4 2 -6.5 0.7 -2.5 2.5 -8.3 4 -13 4.8 -14.8 11 -34.8 11 -35.4 0 -1 -9.5 -0.7 -10.5 0.3 -0.6 0.5 -4.1 1.2 -8 1.5 -3.8 0.3 -10.1 1 -14 1.5 -6.6 1 -19 2.5 -31.5 3.8 -7 0.7 -24 -1.4 -30.5 -3.9 -4.8 -1.7 -5.4 -2.4 -14.9 -16.8 -5.4 -8.3 -10.4 -16 -11.1 -17.2 -0.6 -1.3 -2.5 -4.6 -4.2 -7.4 -8.4 -14.1 -15 -26.3 -22.5 -41.4 -10.2 -20.8 -13 -27.1 -20.2 -46 -3.8 -9.6 -7.2 -18.4 -7.6 -19.5 -0.5 -1.1 -1.4 -3.8 -2.1 -6 -0.7 -2.2 -1.7 -4.4 -2.1 -4.9 -0.4 -0.6 -0.8 -2 -0.8 -3.2 0 -1.3 -0.4 -2.6 -1 -2.9 -0.5 -0.3 -1 -1.7 -1 -3 0 -1.3 -0.4 -2.7 -1 -3 -0.5 -0.3 -1 -1.5 -1 -2.6 0 -1 -0.4 -2.7 -0.9 -3.7 -0.8 -1.6 -1.3 -3.1 -4.1 -13.2 -1.7 -6.1 -3.1 -9 -4.5 -9 -1.1 0 -15.9 22 -24.3 36 -1.8 3 -3.8 5.7 -4.3 5.8 -0.5 0.2 -0.9 0.7 -0.9 1.2 0 0.5 -8.3 13.5 -18.5 28.9 -10.2 15.5 -18.5 28.4 -18.5 28.6 0 0.3 -3.1 5.3 -7 11 -3.8 5.7 -7 10.7 -7 11.1 0 0.3 -0.8 1.8 -1.9 3.2 -1.8 2.7 -19.7 31.7 -23.1 37.8 -1 1.7 -3.7 6.2 -5.9 9.9 -2.3 3.7 -4.1 6.8 -4.1 7 0 0.2 -1.9 3.6 -4.2 7.7 -10.5 18.3 -30.4 58.1 -38.1 75.8 -0.8 1.9 -2.5 5.7 -3.7 8.4 -6.6 14.8 -20.2 52.2 -24.1 66.4 -0.5 1.7 -1.3 4.8 -1.9 6.7 -2.7 9.3 -3.2 11.3 -4.1 14.8 -0.5 2 -1.4 5.6 -2 8 -12.6 51 -15 112.3 -6 157.2 3.3 16.5 7.9 34 11.1 42 0.4 1.1 1.8 4.7 3 8 3.2 8.6 3.2 8.7 10.3 23.5 14.5 30.3 30.8 51.8 55.2 72.9 20.1 17.5 38.1 30.1 48.1 34 3.3 1.3 6.8 2.6 7.9 3.1 1.1 0.4 4 1.3 6.5 2 2.5 0.6 5.9 1.6 7.6 2.1 1.7 0.5 4.7 0.9 6.8 0.9 3.8 0 3.8 0 3.3 -6.2 -0.3 -3.5 -1 -8.3 -1.5 -10.8 -1.2 -5.5 -3.1 -15 -4.2 -21 -0.4 -2.5 -1.3 -7.2 -2 -10.5 -0.7 -3.3 -1.6 -8 -2 -10.5 -0.4 -2.5 -1.3 -7.2 -1.9 -10.5 -2.5 -12.7 -3.1 -16.4 -5 -29 -1.8 -12.3 -2.8 -20.4 -5.1 -42.7 -1.6 -15.2 -1.3 -72.2 0.5 -88.5 2.7 -24.9 6.6 -45.5 13.5 -70.8 1 -3.9 3.8 -12.4 5.1 -15.2 2.7 -6.6 3.5 -8 5.8 -10.5 1.6 -1.8 3.5 -2.8 5.3 -2.8 2.8 0 2.8 0 2.3 14.8 -0.3 8.1 -0.8 16.1 -1.1 17.7 -0.3 1.7 -1 7.3 -1.5 12.5 -0.6 5.2 -1.4 13.1 -1.9 17.5 -2.7 24.9 -3.5 41 -3.5 68.5 0 27.7 0.7 41.3 3.5 65.5 1.9 16.7 6.3 44.6 9.9 62.5 2.4 11.8 3.4 16.9 4.1 21 0.4 2.5 1.3 7.2 2 10.5 0.6 3.3 1.6 8 2.1 10.5 6.2 31.5 1 48.8 -21.5 71.6 -5 5 -12.2 11.6 -16.1 14.6 -8.4 6.6 -34.7 24.1 -43 28.8 -3.3 1.8 -6.7 3.9 -7.5 4.5 -0.8 0.7 -5.1 3.2 -9.5 5.5 -4.4 2.4 -9.6 5.2 -11.5 6.3 -1.9 1.1 -7.5 4.1 -12.5 6.7 -4.9 2.6 -11.7 6.2 -15 8 -3.3 1.8 -8 4.4 -10.5 5.7 -2.5 1.3 -5.2 2.8 -6 3.3 -0.8 0.5 -5.1 2.6 -9.5 4.7 -4.4 2.1 -12 6 -17 8.7 -4.9 2.6 -12.6 6.7 -17 9 -10.6 5.6 -15.1 8.2 -20.2 11.7 -2.3 1.6 -4.6 2.9 -5.1 2.9 -0.6 0 -1.2 0.3 -1.4 0.8 -0.1 0.4 -2.3 2.3 -4.8 4.2 -5.7 4.4 -15 13.7 -15 14.9 0 1.1 2 2 9 3.7 7.6 1.8 12.7 1.7 15.8 -0.4 1.5 -1 4.1 -2.4 5.7 -3.2 1.7 -0.8 3.9 -2.2 5 -3.1 6.9 -5.8 54.6 -28.9 59.8 -28.9 1.3 0 3.2 -0.9 4.2 -2 1 -1.1 2.6 -2 3.6 -2 1 0 2.1 -0.4 2.4 -1 0.3 -0.5 1.5 -1 2.6 -1 1 0 2.7 -0.4 3.7 -0.9 3 -1.5 6.6 -2.9 10.7 -4.2 2.2 -0.6 4.9 -1.5 6 -1.9 5.1 -1.8 9.3 -3 10.8 -3 1 0 2.6 -0.4 3.7 -1 1.1 -0.5 2.9 -1.4 4 -2 1.1 -0.5 3.1 -1 4.4 -1 1.4 0 2.8 -0.4 3.1 -1 0.3 -0.5 2 -1 3.7 -1 1.6 0 5.1 -1.1 7.7 -2.4 6.3 -3.3 12.7 -4.6 22.1 -4.6 6 0 8 0.3 8 1.3 0 2.1 -3.9 5.2 -11.5 9 -5.9 3 -11 5.1 -27 11.7 -1.1 0.4 -4.7 1.8 -8 3 -3.3 1.2 -7 2.6 -8.2 3.1 -6.1 2.4 -7.9 3.2 -9.5 4 -1 0.5 -2.5 0.9 -3.3 0.9 -0.8 0 -2.3 0.4 -3.3 0.9 -5.2 2.7 -12.8 6.1 -13.6 6.1 -1.8 0 -20.3 8.8 -21.1 10 -0.3 0.6 -1.3 1 -2.2 1 -1.6 0 -19 9.5 -26 14.2 -2.3 1.5 -4.6 2.8 -5.1 2.8 -0.5 0 -1.7 0.9 -2.7 2 -1 1.1 -2.2 2 -2.7 2 -0.5 0 -3.4 2.1 -6.3 4.7 -6.5 5.6 -6.1 6.8 2.8 7.7 3.4 0.3 10.3 1.1 15.2 1.6 5 0.6 15.1 1.3 22.5 1.6 13.5 0.6 13.5 0.6 18.6 -2.8 2.8 -1.9 17.6 -9.6 33 -17.2 15.3 -7.6 29.6 -14.6 31.7 -15.7 2.2 -1 4.5 -1.9 5.1 -1.9 0.7 0 2.1 -0.9 3.1 -2 2.4 -2.7 6.9 -4.7 12.3 -5.4 2.4 -0.4 5.1 -1 6 -1.5 6 -3.3 24 -10.1 26.3 -10.1 0.9 0 2.2 -0.6 2.8 -1.4 0.7 -0.8 2.7 -1.8 4.4 -2.1 1.8 -0.4 4.9 -2 6.9 -3.6 3 -2.3 4.7 -2.9 8.8 -2.9 2.7 0 5.8 -0.4 6.8 -0.9 4.2 -2.1 9.4 -3.1 16.5 -3.1 4.2 0 7.7 0.4 7.7 0.9 0 2.1 -7.9 7.3 -19.9 13.1 -12 5.9 -13.8 6.8 -17.8 8.9 -1 0.5 -4.3 2.1 -7.3 3.4 -3 1.4 -11.7 5.5 -19.2 9 -7.5 3.6 -16.5 7.8 -20 9.3 -3.5 1.6 -7.7 3.6 -9.4 4.5 -5.7 3.1 -6.8 3.7 -14.4 7.4 -4.1 2 -8.2 4 -9 4.5 -0.8 0.5 -4.4 2.3 -8 4 -8.3 3.9 -20.9 10.7 -22.7 12.2 -0.8 0.6 -1 1.4 -0.6 1.9 1.7 1.5 31.4 5.7 56.3 7.9 9.3 0.8 32.7 0.6 60.5 -0.6 z  m 1103.5 -80 c 7.4 -0.3 13.9 -1 14.4 -1.5 0.6 -0.5 4.5 -0.9 8.7 -0.9 4.3 0 8.1 -0.4 8.4 -1 0.3 -0.5 3.7 -1 7.4 -1 3.7 0 7.1 -0.4 7.6 -0.9 0.6 -0.5 3.5 -1.2 6.5 -1.5 9.5 -0.9 13 -1.7 13 -3.2 0 -0.8 -1 -1.4 -2.2 -1.4 -1.2 0 -3.5 -0.4 -5.2 -0.9 -1.7 -0.5 -4.9 -1.4 -7.1 -1.9 -5.5 -1.4 -12.5 -3.3 -15.5 -4.2 -1.4 -0.4 -4.5 -1.3 -7 -2 -2.5 -0.7 -11 -3.4 -19 -6 -8 -2.6 -20.3 -6.6 -27.5 -8.8 -37.1 -11.6 -48.5 -15.5 -49.6 -16.8 -0.9 -1.1 -0.8 -1.8 0.5 -3.3 1.3 -1.4 3.7 -1.9 11.8 -2.4 5.6 -0.4 12 -0.2 14.2 0.3 2.3 0.5 6.8 1.3 10.1 1.9 7.5 1.4 57.5 11.1 67 13.1 2.2 0.5 6.7 1.4 10 2 3.3 0.6 7.6 1.5 9.5 2 1.9 0.4 6 1.3 9 2 14.8 3 27.9 6.9 34.2 10.1 3.2 1.6 22 1.1 25.3 -0.8 1.9 -1 6.4 -1.8 12.5 -2.1 7.7 -0.4 10 -0.9 12.2 -2.6 1.5 -1.1 2.7 -2.4 2.7 -2.7 0.1 -0.3 -1.6 -1.1 -3.6 -1.7 -26.2 -7.5 -53.7 -16.2 -60.8 -19.2 -1.1 -0.4 -5.8 -2.2 -10.5 -4 -8.9 -3.3 -11.5 -4.4 -15.2 -6 -1.3 -0.5 -9.9 -3.4 -19.2 -6.5 -25.9 -8.6 -28.9 -10.3 -25.1 -14.5 1.5 -1.6 3.1 -2 8.5 -2 3.6 0 7 -0.4 7.6 -1 0.6 -0.6 3.2 -0.6 7.4 0 3.6 0.6 9.7 1.5 13.5 2.1 7.1 1.1 12.7 2.2 20 4 9.2 2.4 18.4 4.9 21 5.9 5 1.8 9.3 3 11.3 3 1.1 0 2.3 0.4 2.6 0.9 0.3 0.5 2 1.1 3.8 1.4 1.8 0.3 5 1 7.1 1.6 3.7 1.1 7.4 2.2 14.5 4.2 2 0.6 5.3 1.4 7.2 1.9 4.5 1.1 15.5 3.8 20 5 5.8 1.5 9.1 2.1 18 3.5 11.3 1.7 13 0.9 6.8 -3 -0.8 -0.5 -5.5 -3.7 -10.4 -7.1 -10.9 -7.4 -36.5 -20.4 -51.6 -26 -5.6 -2.1 -8.9 -3.4 -11 -4.5 -1 -0.5 -2.7 -0.9 -3.7 -0.9 -1.1 0 -2.3 -0.4 -2.6 -1 -0.3 -0.5 -1.7 -1 -3 -1 -1.3 0 -2.7 -0.4 -3 -1 -0.3 -0.5 -1.7 -1 -3 -1 -1.3 0 -2.7 -0.4 -3 -1 -0.3 -0.5 -1.9 -1 -3.5 -1 -1.6 0 -3.2 -0.4 -3.5 -1 -0.3 -0.5 -1.7 -1 -3 -1 -1.3 0 -3.4 -0.4 -4.7 -0.9 -2.2 -0.8 -5.8 -1.9 -14.8 -4.1 -2.2 -0.5 -5.7 -1.4 -7.7 -1.9 -7.4 -1.9 -27.1 -6.2 -36.3 -8 -35.5 -7 -50.9 -10.5 -66.5 -15.3 -9.9 -3 -13.4 -4.2 -16.7 -5.9 -1 -0.5 -2.3 -0.9 -3 -0.9 -1.9 0 -23.9 -11.3 -29.5 -15.1 -13.6 -9.3 -28.5 -23.7 -33.9 -32.7 -1 -1.8 -2.1 -3.2 -2.5 -3.2 -0.4 0 -1.2 -1.3 -1.9 -3 -0.7 -1.6 -1.6 -3 -2.1 -3 -0.5 0 -0.9 -0.5 -0.9 -1.1 0 -0.6 -1.3 -2.9 -2.8 -5.2 -8.2 -12.2 -16 -31.5 -19.1 -47.2 -0.5 -2.7 -1.5 -7.4 -2 -10.3 -1.4 -6.9 -1.4 -19.3 0 -24.6 2.7 -10.4 3.4 -12.6 6 -20.6 4.1 -12.8 9.4 -30.4 11.9 -40 3.9 -15.2 3.6 -13.9 6.9 -32 2 -11.3 3.9 -25.9 5.8 -45.5 1.3 -13.2 0.9 -80.6 -0.5 -95 -2.1 -21.1 -4.6 -39.4 -7.2 -51 -0.4 -2.2 -1.4 -6.7 -2 -10 -0.6 -3.3 -1.6 -7.6 -2 -9.5 -0.5 -1.9 -1.9 -7.5 -3 -12.5 -3.6 -15.5 -13 -47.8 -16 -55 -0.5 -1.1 -1.8 -4.9 -3 -8.5 -1.2 -3.6 -2.5 -7.4 -3 -8.5 -1.4 -3.3 -4.8 -12.7 -6.1 -17 -0.7 -2.2 -1.7 -4.4 -2.1 -4.9 -0.4 -0.6 -0.8 -1.8 -0.8 -2.9 0 -1.3 -0.6 -1.8 -2.2 -1.5 -2.2 0.3 -2.2 0.3 -1.9 22.6 0.2 19.3 0.1 22.6 -1.4 24.8 -1.7 2.6 -39.2 28 -51 34.5 -3.2 1.8 -3.5 3.5 -1.6 9.9 0.5 1.9 1.5 5.3 2.1 7.5 0.6 2.2 1.5 5.4 2 7 2.6 9.2 4 14.7 4 15.8 -0.1 1.1 -5.2 5.3 -26 21.2 -4.7 3.5 -8.9 6.8 -9.5 7.3 -2.2 1.7 -60.3 45 -64.5 48 -2.5 1.8 -7.6 5.5 -11.5 8.2 -17.3 12.3 -20.9 15 -30.9 22.5 -11.9 9 -36.2 28.3 -44.6 35.3 -15.3 13.1 -28.1 24.1 -33 28.8 -3 2.8 -7.5 6.9 -10 9 -2.5 2.1 -5.6 5 -7 6.4 -1.4 1.4 -5.9 5.7 -10 9.5 -4.2 3.9 -17.5 16.6 -29.7 28.3 -25.6 24.8 -23.7 20.9 -24.8 50.2 -1.8 48.5 -5.3 95 -9.6 124 -2.3 16.3 -4.6 30.7 -5.3 33.5 -0.2 1.1 -1 4.7 -1.6 8 -2.8 14.6 -4.2 20.3 -10.1 41 -5.9 20.9 -7.6 26.4 -12.5 38.5 -3.6 9 -4.9 11.7 -11.1 22.8 -4.6 8.3 -5.3 9.7 -5.3 11 0 1.5 18.5 1.7 19.5 0.2 0.4 -0.6 5.4 -1 11.7 -1 8.9 0 11.5 -0.3 12.9 -1.6 2 -1.8 10.2 -3.2 23.9 -4 6.2 -0.4 9 -1.1 10.5 -2.4 2.3 -2 6.8 -3 17.5 -3.6 4.1 -0.3 8.4 -0.9 9.5 -1.4 2 -0.8 5 -1.6 11 -2.7 1.7 -0.3 4.7 -1.8 6.7 -3.4 2.6 -2 4.8 -2.9 7.5 -2.9 3.7 0 10.6 -1.9 11.9 -3.3 0.4 -0.4 1.6 -0.7 2.6 -0.7 1 0 2.6 -0.4 3.6 -0.9 0.9 -0.5 2.8 -1.3 4.2 -1.9 1.4 -0.5 4.8 -2 7.5 -3.2 2.8 -1.2 5.9 -2.6 7 -3 5.5 -2.2 27.3 -12.6 29.7 -14.2 1.4 -1 3.3 -1.8 4.1 -1.8 0.9 0 1.9 -0.5 2.2 -1 0.4 -0.6 6.1 -4.7 12.8 -9.1 10.1 -6.7 15.2 -11.1 29.2 -25.3 30.3 -30.5 54.2 -65.2 77.8 -113.1 7.1 -14.2 10.4 -21.7 14.7 -32.5 6.9 -17.2 16.5 -46 21.1 -63.5 0.6 -2.2 1.5 -5.4 2 -7.1 0.5 -1.7 0.9 -4 0.9 -5.2 0 -1.1 0.4 -2.3 0.9 -2.6 0.4 -0.3 1.1 -2.2 1.4 -4.3 0.4 -2.1 1.1 -5.8 1.7 -8.3 3.9 -17.3 7 -34.8 10 -57.7 0.6 -4 1.5 -10.8 2 -15 3.1 -23.1 4.8 -42.8 5.9 -68.3 0.5 -11.3 1.3 -21.5 1.6 -22.7 0.6 -1.8 1.5 -2.3 4.1 -2.3 2.9 0 3.5 0.4 4 2.8 0.3 1.5 1 4.1 1.4 5.7 3.1 11.4 5.4 54.1 4.1 74.3 -2.9 40.9 -4.4 53.3 -10.1 83.2 -2.2 12.1 -3.3 16.7 -4.1 18.8 -0.5 1.3 -0.9 3.3 -0.9 4.4 0 1.2 -0.4 3.5 -0.9 5.2 -0.5 1.7 -1.5 5.1 -2.1 7.6 -4.4 17.4 -7.7 28.6 -13.8 47 -4.1 12.3 -11 31.6 -13.1 36.5 -0.5 1.1 -1.6 3.6 -2.4 5.5 -14.2 33.3 -30.7 62.7 -50.9 91 -5.1 7.1 -22.3 28.3 -25.2 30.9 -4.8 4.5 -2.5 13.3 7 26.2 14.8 20.1 37.1 37 63.9 48.4 2.2 0.9 4.9 2.1 6 2.6 2.8 1.1 17.3 5.9 21.5 7.1 1.9 0.5 5.1 1.3 7 1.9 53.9 14.5 124 20.6 200 17.3 z  m -1205.5 -125.5 c 23 -1.1 29.5 -1.8 29.5 -3.2 0 -0.7 -1.4 -1.8 -3 -2.5 -1.7 -0.8 -6.4 -3.6 -10.5 -6.3 -4.2 -2.7 -8 -4.9 -8.5 -4.9 -0.6 0 -1 -0.4 -1 -0.8 0 -0.4 -1.3 -1.6 -3 -2.5 -3.1 -1.9 -17.3 -12.4 -22.4 -16.7 -14 -11.7 -31 -28.9 -41.4 -41.7 -7.6 -9.5 -7.6 -9.5 -12.7 -8.9 -2.7 0.3 -18.9 1 -36 1.6 -35.7 1.2 -65.1 2.7 -78 4.1 -4.9 0.5 -11.7 1.1 -15 1.5 -3.3 0.3 -6.4 1 -7 1.5 -0.5 0.5 -2.6 0.9 -4.6 0.9 -2.1 0 -4.1 0.5 -4.4 1 -0.3 0.6 -1.7 1 -3 1 -1.3 0 -2.7 0.5 -3 1 -0.3 0.6 -1.7 1 -3 1 -1.3 0 -2.7 0.5 -3 1 -0.3 0.6 -1.6 1 -2.8 1.1 -3.3 0.1 -8.2 3.3 -8.5 5.6 -0.2 1.5 0.7 2.5 3.4 3.8 7 3.3 16.7 4.5 44.9 5.5 33 1.2 40.1 2.3 54 8.3 5.3 2.2 10.5 6.3 10.5 8.2 0 0.7 -0.9 2 -2 3 -1.8 1.6 -3.7 1.7 -25.3 1 -16.8 -0.5 -23.6 -0.4 -24.1 0.4 -0.5 0.7 -5.9 1.1 -16.1 1.1 -9.2 0 -15.6 0.4 -16 1 -0.3 0.6 -2.4 1 -4.6 1 -2.1 0 -4.7 0.4 -5.7 0.9 -0.9 0.5 -3.4 1.7 -5.5 2.6 -2 0.9 -3.7 2.1 -3.7 2.8 0 0.7 3.5 2.3 7.8 3.6 4.2 1.2 8.8 2.7 10.2 3.1 2.4 0.7 6.2 1.5 18 3.9 7.8 1.6 55.6 9.2 69.5 11.1 3.9 0.5 8.8 1.2 11 1.5 24.8 3.6 78.3 5.1 115 3.4 z  m 701 -255.9 c 7.7 -7.7 14.4 -14 15 -14 0.6 0 5.7 -4.7 11.5 -10.5 5.8 -5.8 11.1 -10.5 11.9 -10.5 0.8 0 5.7 -4 11 -8.8 5.3 -4.8 13 -11.7 17.1 -15.2 4.1 -3.6 12.2 -10.8 18 -16 15.4 -13.9 32.3 -27.6 54.5 -44.4 7.2 -5.4 15.8 -12.5 19.2 -15.7 3.4 -3.3 7 -5.9 8 -5.9 1 0 5.1 -2.5 9 -5.5 4 -3 7.5 -5.5 7.9 -5.5 0.4 0 2.4 -1.5 4.4 -3.2 3.9 -3.4 7.6 -6.2 11.5 -8.8 3.2 -2.1 14.3 -10.4 23.9 -17.8 4.4 -3.4 9.9 -7.4 12.1 -8.8 2.2 -1.4 7.2 -5.8 11.1 -9.6 6.7 -6.6 7.1 -7.2 6.3 -10.1 -1.7 -7 -2.1 -8.3 -2.8 -10.2 -0.5 -1.1 -1.4 -3.8 -2 -6 -0.7 -2.2 -1.6 -4.9 -2.1 -6 -0.5 -1.1 -1.6 -4 -2.4 -6.5 -1.7 -5.4 -1.7 -5.5 8.3 -12.4 11 -7.6 10.5 -7.3 27.7 -18.8 8.7 -5.9 17.9 -12.7 20.3 -15.2 4.4 -4.5 4.4 -4.5 3.7 -17.8 -1.1 -21.9 -4.4 -44.5 -9.6 -66.8 -0.6 -2.5 -1.5 -6.3 -2 -8.5 -2.5 -11 -4.1 -17.1 -7.5 -27.2 -2.2 -6.4 -3.2 -8.3 -4.6 -8.3 -2.1 0 -2.5 1.5 -3.3 11 -2.1 24.6 -9.6 67.5 -15.5 88.3 -0.6 2 -1.5 5.2 -2 7 -1.2 4.2 -4.3 13.5 -7.4 21.7 -10.5 28.5 -28.6 58.9 -38.1 64.2 -1.3 0.7 -4.3 2.4 -6.7 3.8 -3.7 2.1 -5.7 2.5 -12.9 2.5 -7.4 0 -9.1 -0.3 -13 -2.7 -5.3 -3.1 -7.2 -5.2 -10 -11 -1.8 -3.6 -2.1 -6.3 -2.2 -17 -0.1 -9.5 -0.4 -12.8 -1.4 -12.8 -0.7 0 -5.1 6.4 -9.9 14.3 -4.9 7.8 -11.1 17.9 -13.9 22.4 -7.8 12.5 -46.7 71.7 -47.5 72.3 -0.4 0.3 -2.7 3.4 -5.1 7 -4.3 6.4 -20.8 29.2 -26 36 -2.9 3.8 -30.1 39.8 -39.6 52.5 -3.3 4.4 -10.1 13.4 -15 20 -12.9 17.1 -21.6 29.4 -24.1 34.1 -2.6 4.7 -3.3 14.4 -1 14.4 0.7 0 7.5 -6.3 15.2 -14 z  m -31.8 -16.2 c 0.6 -1.3 2.4 -5.3 4.2 -8.9 1.7 -3.6 3.1 -6.9 3.1 -7.3 0 -0.5 -1.5 -2.5 -3.2 -4.6 -1.8 -2 -4.2 -4.8 -5.2 -6.1 -2.2 -2.8 -11.9 -14.2 -12.6 -14.9 -0.3 -0.3 -4.5 -5 -9.5 -10.5 -4.9 -5.5 -13 -14.3 -18 -19.5 -9.6 -10.2 -30.9 -33 -39 -42 -14.9 -16.2 -52.4 -53.8 -79.5 -79.5 -5.2 -4.9 -15.1 -14.4 -22 -21 -14.4 -13.9 -38.9 -36.8 -44 -41.1 -1.9 -1.6 -5.7 -4.9 -8.5 -7.4 -2.7 -2.5 -6.8 -6.1 -9 -8 -4.5 -3.7 -18.1 -15.9 -26.5 -23.6 -3 -2.8 -7.1 -6.4 -9 -8 -1.9 -1.6 -5.7 -4.9 -8.5 -7.4 -2.7 -2.6 -6.6 -5.9 -8.5 -7.4 -1.9 -1.6 -6.4 -5.6 -10 -9 -3.6 -3.3 -9 -8.3 -12 -11 -3 -2.8 -15 -14.1 -26.6 -25.2 -11.6 -11.1 -23.2 -22.2 -25.9 -24.6 -4.9 -4.4 -39 -40.8 -48.1 -51.4 -32.3 -37.7 -45.5 -56.6 -59.8 -86 -6.3 -12.9 -12.8 -32 -15.5 -45.9 -2.6 -13.4 -2.5 -13 -5 -13.3 -2.9 -0.5 -8 4.3 -16.3 15.3 -9.9 13 -13.9 23.6 -15.7 41.5 -1.4 13.6 1.5 42.2 5.9 59 0.5 1.9 1.7 6.6 2.5 10.4 3 12.7 14.2 45.2 21.1 61.4 0.8 1.7 2.1 4.9 3 7 8.4 19.5 33.3 69 38.3 76.1 1.2 1.6 2.1 3.2 2.1 3.5 0 2.1 12.5 18.8 15 20.1 2.4 1.2 7.8 1.5 30.8 1.5 15.5 0 28.2 -0.4 28.7 -0.9 1 -0.9 8.6 -1.5 35.3 -2.7 14.3 -0.7 15.7 -0.1 14.9 5.5 -0.3 2 -1 5.4 -1.6 7.6 -0.9 3.7 -1.5 6 -4 16.3 -0.9 3.3 -3.9 14.9 -6.1 22.7 -1.7 6.2 -7.9 25.4 -9.4 29 -0.9 2.1 -1.6 4.3 -1.6 4.9 0 1.8 15.3 10.9 30.5 18.1 25.7 12.2 27.9 13.3 43.7 20.9 8.6 4.2 15.8 7.6 16.1 7.6 2.7 0 99.7 48.8 119 59.8 2 1.2 5.4 3.2 7.5 4.4 2 1.1 6.6 3.7 10.2 5.6 3.6 1.9 8.4 4.5 10.8 5.8 2.3 1.3 6.3 3.6 9 5 12.8 7.2 20.1 11.7 36.4 22.6 17.4 11.6 22.6 15.3 32.4 23.3 12.8 10.4 17.7 14.7 27.4 24.2 5.8 5.7 10.8 10.3 11.1 10.3 0.3 0 1 -1 1.6 -2.2 z  m 56.9 -82.9 c 36.1 -48.2 37.9 -50.7 55.4 -76.8 11.8 -17.8 33.8 -53.2 42.9 -69.3 1.1 -2.1 3.1 -5.5 4.3 -7.5 2.2 -3.9 4.9 -8.8 11 -20.3 1.9 -3.6 6.9 -13.2 11.1 -21.5 8.3 -16.6 12.1 -24.9 15.8 -34 0.8 -2.1 1.5 -9.7 2.8 -31.5 0.8 -13.9 0 -39.4 -1.8 -53.5 -2.6 -20.5 -3.3 -24.9 -6.1 -42 -0.4 -2.7 -1.3 -8.1 -1.9 -11.9 -1.2 -7.6 -1.7 -8.6 -3.4 -8.6 -0.7 0 -5.5 4.3 -10.7 9.6 -12.1 12.3 -24.8 20.7 -39.7 26.5 -1.3 0.5 -3.3 1.3 -4.5 1.8 -3.8 1.4 -8.2 3.3 -10 4.2 -1 0.5 -2.9 0.9 -4.2 0.9 -1.4 0 -2.7 0.4 -3 0.9 -0.3 0.5 -2 1.1 -3.8 1.4 -1.8 0.4 -4.9 0.9 -6.8 1.2 -1.9 0.4 -4.4 1 -5.5 1.5 -5.1 2.2 -27 4.2 -40 3.5 -15.2 -0.8 -21.1 -2.8 -18.3 -6.3 1.7 -2 5.7 -3.8 11.8 -5.2 3 -0.7 6.3 -2 7.3 -2.8 2.1 -1.9 9.7 -3.2 22.2 -3.9 8.2 -0.4 9.3 -0.7 12 -3.3 2.7 -2.5 3.8 -2.8 11.8 -3.2 7.8 -0.4 9 -0.7 11.5 -3.1 1.6 -1.5 3.5 -2.7 4.4 -2.7 0.9 0 4.2 -1.3 7.3 -3 3.1 -1.6 6.3 -3 6.9 -3 0.7 0 2.1 -0.9 3.1 -2 1 -1.1 2.2 -2 2.7 -2 2.9 0 19.9 -13.4 30.2 -23.8 11.9 -12.1 11.9 -12.1 9.8 -26.2 -1.1 -7.8 -2.6 -14.8 -3.3 -15.6 -0.6 -0.8 -3.2 -2.3 -5.8 -3.5 -6.8 -3 -26.2 -14.4 -33.1 -19.5 -7.8 -5.7 -9.7 -5.6 -13.6 0.4 -6.3 9.4 -19.4 23.9 -31.2 34.6 -14.7 13.1 -24.8 20.4 -42.8 30.6 -8.1 4.6 -23.6 12 -25.2 12 -0.7 0 -2.1 0.5 -3.2 1 -1.1 0.6 -2.9 1.5 -4 2 -1.1 0.6 -3 1 -4.1 1 -2.2 0 -2.2 0 -1.5 21.3 1.2 39.8 2.9 74.3 5.6 116.2 1.5 22.6 2.8 44.1 4 65 0.5 9.9 1.5 24.3 2.1 32 1.7 21.2 0 32.3 -6.1 39.7 -4 4.8 -8.2 6.8 -14.4 6.8 -26.1 -0.1 -45.4 -24.4 -74.1 -93.5 -3.2 -7.7 -6.6 -15.9 -7.6 -18.2 -1.1 -2.4 -1.9 -4.6 -1.9 -5 0 -0.7 -4.6 -13.1 -7 -18.8 -0.5 -1.1 -1.8 -4.9 -3 -8.5 -1.2 -3.6 -2.5 -7.4 -2.9 -8.5 -0.7 -1.6 -3.9 -11.8 -8.1 -25.5 -7 -23 -11.9 -52.3 -12.7 -76.7 -0.6 -18.1 -0.6 -18.1 -3.2 -19.3 -1.4 -0.7 -3.4 -1.6 -4.3 -2.1 -1 -0.5 -2.8 -0.9 -4.1 -0.9 -1.3 0 -2.7 -0.4 -3.3 -0.8 -0.5 -0.4 -2.7 -1.4 -4.9 -2.1 -4.7 -1.5 -7.3 -2.5 -17 -6.6 -6.2 -2.6 -17.7 -8.6 -20.7 -10.6 -5.9 -4.2 -8.7 -1.5 -17.8 17.3 -5.8 11.8 -10.2 17 -14 16.6 -6.6 -0.8 -4.1 -15.8 6.7 -38.9 3.8 -8.3 4.3 -10 3.3 -11.8 -1.5 -2.9 0.2 -5.1 3.9 -5.1 2.1 0 4.2 -1.9 10.4 -9.2 9.2 -10.9 25.6 -27.8 26.9 -27.8 0.5 0 4.8 -3.5 9.6 -7.8 10.2 -8.9 28.2 -22.9 30.9 -23.9 1 -0.4 3.2 -1.7 4.9 -3 1.7 -1.3 4 -2.3 5.2 -2.3 1.1 0 2.4 -0.4 2.7 -1 0.8 -1.2 10.5 -1.3 10.5 -0.1 0 0.5 -5.1 5.4 -11.2 10.9 -13.2 11.7 -34.6 33.4 -50.8 51.5 -11.7 13 -14.8 17.2 -13.9 18.2 0.8 0.8 32.9 9.5 42.9 11.6 3 0.6 6.8 1.6 8.3 2.2 3.3 1.2 3.8 0.7 5.6 -4.8 0.7 -2.2 1.7 -5 2.2 -6.2 0.5 -1.3 1.3 -3.3 1.8 -4.5 2.3 -5.9 7.9 -16.9 11.3 -22.1 2.1 -3.2 3.8 -6 3.8 -6.3 0 -0.2 1.6 -2.4 3.5 -4.9 7.2 -9.5 11.9 -14.5 13.5 -14.5 1 0 3.4 -1.3 5.5 -3 2.8 -2.2 4.8 -3 7.8 -3 3.9 0 3.9 0 2.2 2.8 -1 1.5 -2.6 3.6 -3.5 4.7 -4.2 4.8 -13 20.2 -16.1 28.3 -1.8 4.5 -3.2 7.7 -4 9.4 -0.5 1 -0.9 2.5 -0.9 3.3 0 0.8 -0.4 2.3 -0.9 3.3 -0.5 0.9 -1.4 3.6 -2 6 -0.6 2.3 -1.6 6 -2.2 8.1 -0.7 2.2 -0.9 4.6 -0.6 5.4 1.1 2.9 13.9 3.2 49.9 1.1 8.7 -0.5 11 -0.9 12.4 -2.5 1.3 -1.4 3.1 -1.9 7.4 -1.9 4.4 0 6.1 -0.4 7.5 -2 1.3 -1.5 3.1 -2 6.5 -2 2.6 0 6 -0.6 7.6 -1.4 1.6 -0.8 4.7 -2.2 6.9 -3.1 15.7 -6.7 30.1 -14.2 42.4 -21.9 2.2 -1.5 4.5 -2.6 5.1 -2.6 0.5 0 8.6 -7.5 18 -16.7 19.2 -18.7 27.9 -29.8 35.7 -45.2 2.8 -5.7 6.4 -11.6 7.9 -13.2 3.4 -3.5 8.3 -4 9.1 -0.9 0.3 1.1 0.9 2 1.4 2 0.5 0 0.9 0.6 0.9 1.3 0.1 3.1 12.1 15.6 21 21.6 13.5 9.3 25.4 15.6 39 20.6 2.5 0.9 5.4 2.1 6.5 2.5 7.4 3.2 24.6 8 37 10.4 16.3 3.3 23.2 3.8 45 3.3 22.7 -0.5 31.3 -1.2 32.9 -2.8 0.6 -0.5 3.7 -0.9 7.1 -0.9 5.7 0 6.3 -0.3 11.5 -4.5 3 -2.5 6.8 -5.2 8.5 -5.9 3.3 -1.6 11.9 -10.1 15.4 -15.4 1.8 -2.6 2 -3.6 1.1 -4.7 -1.1 -1.3 -36.5 -19.2 -45.5 -23 -2.2 -1 -6.6 -3 -9.8 -4.4 -5.5 -2.6 -5.6 -2.8 -3.9 -4.4 1.4 -1.3 4.3 -1.7 13.3 -1.9 11.3 -0.2 11.5 -0.2 25.4 4.5 7.6 2.7 16.4 6 19.4 7.3 3 1.4 6.7 2.8 8.2 3.1 2.5 0.5 2.8 0.2 3.4 -3 0.7 -3.8 0 -32.4 -1.1 -41.4 -0.4 -3.4 -1.1 -5.4 -2.2 -5.8 -3.8 -1.6 -17.3 -2.6 -44.7 -3.4 -15.9 -0.5 -30.3 -1.3 -31.9 -1.8 -2.9 -0.9 -2.9 -0.9 0.3 -3.3 1.7 -1.4 4.4 -3.5 6 -4.7 2.5 -2 4 -2.3 12.6 -2.3 8.2 0 10.1 -0.3 12.2 -2 2.4 -1.8 4.1 -2 20.4 -2 13.1 0 17.8 -0.3 18.1 -1.2 0.5 -1.4 -7.1 -16.6 -12.5 -24.9 -4.8 -7.5 -7 -9.3 -9.6 -8 -1.1 0.6 -4 1.1 -6.5 1.1 -2.5 0 -4.8 0.5 -5.1 1 -0.3 0.6 -2.4 1 -4.5 1 -2.1 0 -4.2 0.5 -4.5 1 -0.3 0.6 -2.1 1 -4 1 -1.9 0 -3.7 0.5 -4 1 -0.3 0.6 -2.4 1 -4.5 1 -2.1 0 -4.2 0.5 -4.6 1.1 -1 1.7 -12.1 0.6 -14.1 -1.4 -1.6 -1.5 -1.5 -1.8 0.7 -4.2 1.3 -1.4 4.7 -3.6 7.4 -4.9 9.6 -4.5 14.6 -6.6 15.4 -6.6 0.5 0 1.7 -0.9 2.7 -2 1.3 -1.5 3.1 -2 6.5 -2 4.4 0 7 -1.3 7 -3.4 0 -1.2 -9.6 -7.7 -16.4 -11.1 -2.3 -1.2 -5 -2.6 -6.1 -3.2 -5.7 -3.1 -10 -4.3 -18.5 -5.3 -33.8 -4.2 -62.5 -4.5 -70.5 -1 -1.9 0.8 -3.9 1.2 -15.5 2.6 -2.5 0.3 -4.9 1 -5.5 1.5 -0.5 0.5 -2.8 0.9 -5.1 0.9 -2.4 0 -4.6 0.5 -4.9 1 -0.3 0.5 -1.6 1 -2.9 1 -1.2 0 -5.1 2.5 -9 5.8 -8.9 7.6 -14.8 12.4 -24.7 20.2 -16.4 13 -19.8 16.1 -22.9 20.4 -3 4.5 -3 4.5 -1.2 7.8 1 1.8 2.3 5 2.9 7.2 1.4 4.4 0.1 7.3 -4.1 9.6 -3.8 2 -10.4 -1.9 -20.6 -12.1 -4.8 -4.8 -10.6 -9.9 -12.9 -11.3 -6.5 -4.1 -11.1 -6.6 -12.2 -6.6 -1.5 0 -15.7 -6.9 -16.4 -8 -0.6 -0.9 -4.4 -2.8 -10 -4.9 -3.1 -1.1 -21.5 -4.4 -31.6 -5.6 -3.1 -0.3 -6.5 -1.2 -7.5 -2 -1.8 -1.3 -1.7 -1.6 1.8 -5.1 4.4 -4.4 8 -5.3 26.9 -6.1 12.7 -0.5 12.7 -0.5 17 -4.9 4 -4 4.7 -4.4 9.3 -4.4 8.5 0 15.5 5.6 16.8 13.5 0.2 1.3 2.6 3.2 6.8 5.5 7.7 4.1 14.7 8.9 17.4 11.9 3.6 4 6 2.8 18.2 -8.6 6.4 -6 12.1 -11 12.7 -11.2 0.7 -0.2 2.6 -1.6 4.2 -3.2 4.3 -4 19.4 -12.9 22 -12.9 1.3 0 3.3 -0.9 4.6 -1.9 2.1 -1.7 2.2 -2.1 0.9 -3.4 -0.8 -0.8 -3.3 -2.1 -5.5 -3 -2.2 -0.9 -8.4 -3.4 -13.7 -5.6 -5.3 -2.2 -11.6 -4.7 -14 -5.5 -2.4 -0.8 -7 -2.5 -10.3 -3.7 -9.9 -3.6 -22.2 -5.8 -37.4 -6.6 -16 -0.8 -35.2 2.7 -46.2 8.3 -14 7.1 -30.1 23.3 -37.4 37.9 -2.3 4.6 -9.2 10.1 -18.5 14.7 -3.6 1.8 -8.4 4.5 -10.7 6 -2.3 1.5 -4.5 2.8 -4.8 2.8 -0.4 0 -1.9 0.9 -3.4 1.9 -10.6 7.6 -19.1 9.9 -22.5 6.2 -1.7 -1.8 -1.6 -2.1 2 -6.1 6 -6.6 20.5 -16 24.8 -16 1.2 0 3.1 -0.9 4.1 -2 1 -1.1 2.8 -2 4 -2 3.3 0 8.1 -5.9 10.5 -13 4.5 -13.6 7.6 -18.3 19.9 -30.3 10.3 -10.1 12.8 -12 21.1 -16 5.2 -2.6 13.3 -5.6 18 -6.7 4.7 -1.1 10.1 -2.9 12.1 -4 3.3 -1.8 5.7 -2 23.8 -2 11.1 0 22.3 0.5 24.9 1 2.6 0.6 7 1.5 9.7 2.1 4.7 1 15.4 4.2 20 5.9 6.5 2.5 20.7 10.1 25.9 14 13.2 9.9 16.1 10.8 19.6 6.3 1.9 -2.4 2 -2.8 0.6 -3.1 -0.9 -0.2 -1.6 -0.7 -1.6 -1.2 0 -0.5 -0.9 -1.2 -2.1 -1.5 -3.2 -1 -9.4 -8 -11.9 -13.3 -2.9 -6.1 -3.3 -19 -0.7 -24.4 3 -6.4 16 -16.8 20.9 -16.8 0.8 0 2.3 -0.9 3.3 -2 3.1 -3.5 12.3 -2.5 21.1 2.2 14.5 7.8 19.3 29 10.2 45.6 -3.6 6.5 -4.7 6.2 26.3 6.2 28.1 0 28.1 0 27.6 -2.2 -0.6 -2.7 -4.2 -12.7 -6.4 -17.8 -0.8 -1.9 -2 -4.8 -2.7 -6.5 -0.7 -1.6 -4.1 -10.2 -7.5 -19 -3.5 -8.8 -6.7 -17 -7.2 -18.2 -0.5 -1.3 -1.3 -3.3 -1.8 -4.5 -0.5 -1.3 -1.6 -3.9 -2.4 -5.8 -0.9 -1.9 -2.3 -5.5 -3.3 -8 -3 -7.7 -13.5 -28.1 -18.2 -35.5 -8 -12.5 -19.6 -23.2 -35.2 -32.6 -20.1 -12 -59 -28.9 -66.8 -28.9 -2.8 0 -4.6 1.3 -12 8.6 -4.8 4.7 -11 10.2 -13.9 12 -2.8 1.9 -5.7 4.1 -6.3 4.9 -0.7 0.8 -1.7 1.5 -2.2 1.5 -0.5 0 -2.8 1.3 -5.1 2.8 -3.8 2.6 -18.7 10 -24.7 12.4 -1.4 0.6 -3.3 1.4 -4.2 1.9 -1 0.5 -2.7 0.9 -3.7 0.9 -1.1 0 -2.3 0.4 -2.6 1 -0.3 0.5 -1.9 1 -3.5 1 -1.6 0 -3.2 0.5 -3.5 1 -0.3 0.6 -1.9 1 -3.5 1 -1.6 0 -3.1 0.4 -3.4 0.9 -0.3 0.5 -2.3 1.1 -4.3 1.4 -2.1 0.3 -7.4 1.1 -11.8 1.8 -14.3 2.4 -39.6 1.5 -58 -2 -8.2 -1.6 -10.9 -2.2 -13 -3 -1.1 -0.5 -5.1 -1.8 -9 -3 -9.5 -3 -20.3 -8 -32 -14.9 -6.1 -3.6 -20.5 -13.9 -21.6 -15.5 -0.7 -1 -10.6 -0.4 -16.4 1.1 -13.7 3.4 -28.4 7.3 -30.5 8.1 -1.4 0.5 -5.9 2 -10 3.2 -4.1 1.2 -7.9 2.6 -8.5 3.1 -0.5 0.4 -1.9 0.8 -3.1 0.8 -1.3 0 -2.6 0.5 -2.9 1 -0.3 0.6 -1.7 1 -3 1 -1.3 0 -2.7 0.5 -3 1 -0.3 0.6 -1.7 1 -3 1 -1.3 0 -2.7 0.5 -3 1 -0.3 0.6 -1.5 1 -2.6 1 -1 0 -2.7 0.4 -3.7 0.9 -1.8 0.9 -5.8 2.6 -10.2 4.4 -1.4 0.5 -3.3 1.3 -4.2 1.8 -1 0.5 -2.4 0.9 -3.1 0.9 -0.7 0 -3.2 0.9 -5.5 2 -2.2 1.1 -4.5 2 -5.1 2 -0.5 0 -2.9 1 -5.3 2.1 -2.3 1.2 -5.2 2.5 -6.3 2.9 -26.5 10 -74 32.5 -84.5 40 -1.5 1.1 -3 2 -3.3 2 -1.6 0 -35.3 21.5 -41.5 26.5 -0.9 0.7 -5.1 4.1 -9.2 7.5 -4.1 3.3 -8.4 6.8 -9.5 7.7 -21.5 17.5 -38.7 38.8 -49.9 61.8 -2.7 5.5 -5.3 11 -5.7 12.3 -0.5 1.2 -1.3 3.2 -1.8 4.5 -0.5 1.2 -1.4 3.8 -2.1 5.7 -0.7 1.9 -1.6 4.4 -2 5.5 -0.5 1.1 -1.1 3.1 -1.5 4.5 -0.3 1.4 -1.1 4 -1.6 5.8 -2.4 8.5 -3.1 11 -4 14.7 -0.6 2.2 -1.4 5.8 -2 8 -3.1 12.4 -6.3 28.5 -7.5 38.5 -2.5 20.3 -2.6 21.5 -1.5 31.3 1.7 14.5 5.7 31 10.3 41.7 0.6 1.4 1.4 3.4 1.8 4.5 1 2.7 9.6 20.3 11.8 24 1 1.7 3.1 5.3 4.7 8 6.3 10.9 22.9 34.8 27.2 39.3 0.8 0.8 2.6 3 4.1 5 1.5 2.1 2.9 3.9 3.2 4.2 0.3 0.3 4.8 5.4 10 11.5 13.6 15.7 58.5 60.5 81.1 80.9 2.9 2.7 8.1 7.5 11.4 10.5 3.3 3.1 8.3 7.6 11 10 2.8 2.5 9.2 8.3 14.4 13 25.3 22.9 38.3 34.6 43.1 38.7 1.9 1.6 6.4 5.6 10 8.9 3.6 3.3 9 8.3 12 11 3 2.7 8.4 7.6 12 10.9 3.6 3.4 8.8 8.1 11.5 10.5 17.5 15.4 137 133.5 158.5 156.6 4.6 5 12.9 13.8 18.4 19.6 5.6 5.8 11.9 12.5 14 15 2.2 2.4 6.2 6.9 9 9.9 2.8 3 7.3 8.1 10 11.3 4 4.7 5.1 5.6 6.1 4.5 0.7 -0.7 14.2 -18.7 30.1 -39.9 z  m -57.3 -125.1 c 0.6 -2.1 0.2 -17.3 -0.9 -32.8 -0.2 -4.1 -0.9 -15.4 -1.4 -25 -1.2 -21.9 -3.4 -52.4 -6.1 -83.5 -0.6 -6.6 -1.3 -31.5 -1.5 -55.3 -0.5 -43.3 -0.5 -43.3 -5.7 -42.6 -2.9 0.3 -9 1.3 -13.7 2.1 -5.3 1 -17.8 1.8 -33.5 2.2 -25 0.6 -25 0.6 -25.4 6.1 -0.3 5.7 1.3 23.7 2.9 32.8 3.2 16.9 3.2 17 6.2 28.7 0.6 2.2 1.4 5.1 1.8 6.5 0.4 1.4 1.3 4.5 2 7 0.6 2.5 1.6 5.3 2.1 6.2 0.5 1 0.9 2.5 0.9 3.3 0 0.8 0.4 2.3 1 3.3 0.5 0.9 2.6 6.7 4.6 12.7 3.8 11.4 14.6 39.5 18.4 48.1 18.8 42.1 33.2 68 44.3 80 2.8 2.9 3.3 2.9 4 0.2 z  m 232.9 -19.5 c 6.1 -6.6 17.4 -27.1 21.8 -39.3 0.6 -1.9 1.6 -4.4 2 -5.5 4 -9.6 12.9 -41.7 16 -58 8.1 -41.5 10 -57.9 12 -100 1.2 -24.2 0.7 -59.2 -0.8 -60.7 -0.5 -0.5 -6.4 -1.3 -13.3 -1.8 -6.8 -0.5 -15.1 -1.4 -18.4 -2 -14.2 -2.4 -23.4 -4.2 -31.5 -6 -2.5 -0.6 -6.3 -1.3 -8.4 -1.7 -3.9 -0.6 -3.9 -0.6 -3.2 3.8 0.4 2.4 1.2 6.5 1.7 9.2 1.9 10 2.8 14.4 3.9 20.7 0.6 3.6 1.6 8.8 2.1 11.5 0.5 2.8 1.3 7.7 1.9 11 0.5 3.3 1.5 8.7 2 12 3.9 22.3 6.3 43.7 8.5 77 1.8 26 1.7 43.9 -0.5 96 -1 22.7 -0.6 36.5 0.9 36.5 0.4 0 1.9 -1.2 3.3 -2.7 z  m -654.4 -562.8 c 8.6 -7.9 17.4 -15.7 19.4 -17.2 2 -1.5 7.1 -5.5 11.3 -8.8 4.2 -3.3 8.4 -6.4 9.3 -7 1 -0.5 3.8 -2.5 6.3 -4.2 2.6 -1.8 4.9 -3.3 5.2 -3.3 0.3 0 4.3 -2.5 8.8 -5.6 4.5 -3.1 10.1 -6.5 12.5 -7.6 2.4 -1 4.6 -2.3 4.9 -2.8 0.3 -0.5 1.8 -1.5 3.3 -2.3 1.5 -0.7 4.4 -2.3 6.5 -3.5 2.1 -1.2 4.4 -2.2 5.2 -2.2 0.9 0 3.4 -1.3 5.7 -3 2.2 -1.6 4.7 -3 5.5 -3 0.7 0 2.5 -0.8 3.9 -1.7 7 -4.5 21.7 -11.8 26 -12.9 1.6 -0.4 4 -1.5 5.3 -2.6 1.3 -1 3.3 -1.8 4.4 -1.8 1.1 0 2.8 -0.7 3.8 -1.6 1 -0.9 4 -1.9 6.6 -2.1 3.1 -0.4 5.7 -1.4 7.3 -2.8 1.4 -1.3 5.7 -3.5 9.5 -5 3.9 -1.5 7.8 -3.1 8.7 -3.6 1 -0.5 2.8 -0.9 4.2 -0.9 1.3 0 2.9 -0.7 3.6 -1.5 0.7 -0.8 2.9 -1.5 4.9 -1.5 2.7 0 4.4 -0.7 6.1 -2.5 1.3 -1.4 3.4 -2.5 4.6 -2.5 1.3 0 2.6 -0.4 2.9 -1 0.3 -0.5 1.5 -1 2.6 -1 1 0 2.7 -0.4 3.7 -0.9 2.4 -1.2 14.7 -5.1 16.2 -5.1 0.6 0 2.6 -1 4.3 -2.2 4.4 -3.2 15.3 -6.7 20.5 -6.8 2.8 0 5.3 -0.7 6.9 -2 1.9 -1.5 4.1 -2 8.1 -2 3.7 0 6.1 -0.5 7.3 -1.6 1 -0.9 3.9 -1.9 6.4 -2.2 2.6 -0.2 4.9 -1 5.1 -1.7 0.3 -0.6 -1.6 -4.2 -4.1 -7.9 -5.6 -8.4 -11.5 -20.6 -14.8 -30.4 -3.1 -9.4 -3.6 -9.8 -8.4 -8.5 -2.1 0.6 -5.8 1.7 -8.3 2.3 -2.5 0.7 -5.9 1.8 -7.6 2.5 -1.7 0.7 -5.2 1.6 -7.8 2 -2.5 0.4 -4.9 1.1 -5.2 1.6 -0.3 0.5 -1.4 0.9 -2.5 0.9 -1 0 -2.8 0.5 -3.9 1 -1.1 0.6 -2.9 1.5 -4 2 -1.1 0.6 -2.9 1 -3.9 1 -1.1 0 -2.3 0.5 -2.6 1 -0.3 0.6 -1.7 1 -3 1 -1.3 0 -2.7 0.5 -3 1 -0.3 0.6 -1.5 1 -2.6 1 -1 0 -2.8 0.5 -3.9 1 -1.1 0.6 -2.9 1.5 -4 2 -1.1 0.6 -2.7 1 -3.5 1 -0.8 0 -2.3 0.4 -3.3 0.9 -4.6 2.3 -11 5.1 -11.8 5.1 -1.2 0 -16.9 6.2 -22.3 8.8 -2.5 1.2 -4.8 2.2 -5.2 2.2 -1.1 0 -21.5 9.3 -34.2 15.6 -12.4 6.2 -15.2 7.8 -32.2 17.4 -7.1 4.1 -14.2 8.4 -18.2 11.1 -2.3 1.6 -4.6 2.9 -5.1 2.9 -0.5 0 -1.7 0.9 -2.7 2 -1 1.1 -2.2 2 -2.6 2 -0.7 0 -13.4 9.2 -21.4 15.6 -1.6 1.4 -3.5 2.8 -4 3.2 -2.8 2 -10.9 9.3 -18.2 16.4 -9.2 9 -12.8 15.3 -20.8 36.2 -7.6 19.7 -11.9 40.6 -8.4 40.6 0.5 0 8.1 -6.5 16.7 -14.5 z  m 633.8 9.5 c 2.5 -3.8 2.6 -4.1 1 -6.5 -1.3 -2 -2.5 -2.5 -5.7 -2.5 -4.8 0 -6.9 1.8 -6.9 5.9 0 2 0.8 3.6 2.6 5 3.9 3.1 6 2.6 9 -1.9 z  m -183.1 -117 c 1.4 -1.6 3.1 -2 8.1 -2 3.5 0 6.6 -0.4 6.9 -1 0.3 -0.5 1.5 -1 2.7 -1 1.1 0 3.6 -1.3 5.4 -3 2 -1.7 5.1 -3.3 7.5 -3.6 2.4 -0.4 5.6 -2 8.1 -4 2.2 -1.9 4.9 -3.4 6 -3.4 3.3 0 9.9 -5.3 21.6 -17.5 12.2 -12.7 17.2 -19.3 24 -32.1 5.2 -9.7 9.2 -22.7 12.2 -39.8 1.3 -7.6 1.3 -28.6 0 -36.2 -2.4 -13.3 -4.3 -21.7 -6.2 -26.4 -0.6 -1.4 -1.4 -3.4 -1.8 -4.5 -5.2 -14.1 -16.1 -30.6 -28 -42.6 -16.4 -16.6 -33.9 -27.6 -54 -34.2 -17.9 -5.9 -20.4 -6.2 -46 -6.2 -22.5 0.1 -23.9 0.2 -33.5 2.8 -27 7.4 -44.1 17.1 -61.7 34.8 -13.7 13.9 -23.7 30.9 -29.5 50.4 -5.5 18.3 -6.3 23.6 -6.3 44 0 19.6 0.6 24.6 5.3 40.5 2.7 9.3 11.6 27 17.8 35.2 10.2 13.7 28 28.4 43.6 36.2 24 12 39.6 15.3 73.9 15.5 20.9 0.1 22.2 0 23.9 -1.9 z  m -410 -11 c 1 -1.1 2.8 -2 4 -2 1.3 0 2.8 -0.7 3.5 -1.5 0.7 -0.8 1.7 -1.5 2.2 -1.5 0.5 0 3.5 -1.7 6.6 -3.9 3.1 -2.1 9.1 -5.8 13.2 -8.2 4.1 -2.4 8.9 -5.2 10.5 -6.2 1.7 -0.9 5.3 -2.9 8 -4.3 2.8 -1.4 6.4 -3.4 8 -4.4 1.7 -1 3.7 -1.9 4.6 -1.9 0.9 -0.1 2.4 -1 3.4 -2.1 1 -1.1 2.3 -2 3 -2 0.6 0 5.5 -2.2 10.9 -4.9 5.3 -2.7 14 -6.6 19.4 -8.7 5.3 -2 10.1 -4.1 10.7 -4.5 0.5 -0.5 1.7 -0.9 2.7 -0.9 0.9 0 3.3 -1.1 5.3 -2.4 2 -1.4 5 -2.7 6.8 -3.1 3.4 -0.6 4.4 -1 11.8 -4.4 2.5 -1.2 5.2 -2.1 6 -2.1 0.9 0 1.9 -0.3 2.3 -0.7 1 -1.1 7.9 -3.3 10.2 -3.3 1.1 0 3.3 -1.3 4.9 -3 2.5 -2.7 3.5 -3 8.6 -3 3.2 0 6 -0.4 6.4 -0.9 0.3 -0.5 3 -1.3 6 -1.6 3 -0.4 6 -1.3 6.6 -2.1 0.6 -0.8 2.4 -1.4 4 -1.4 1.5 0 3.1 -0.5 3.4 -1 0.3 -0.6 2.2 -1 4.2 -1 2.4 0 4.5 -0.8 6 -2.1 1.5 -1.5 4 -2.3 7.5 -2.7 2.9 -0.2 5.9 -0.9 6.6 -1.4 0.9 -0.8 1.2 -6.1 1.2 -20.4 0 -19.4 0 -19.4 -5.8 -19.4 -3.2 0 -6.2 0.4 -6.8 0.9 -0.5 0.5 -2.8 1.2 -5.1 1.5 -10.5 1.5 -12.3 1.9 -12.9 2.7 -0.3 0.5 -1.6 0.9 -2.9 0.9 -3.6 0 -32.2 7.5 -38 10 -1.1 0.5 -2.9 1.1 -4 1.3 -7.2 1.8 -21.4 7.8 -32.8 13.9 -1.8 0.9 -3.9 1.7 -4.8 1.8 -0.9 0 -2.2 0.7 -2.9 1.5 -0.7 0.8 -1.8 1.5 -2.5 1.5 -0.8 0 -2.7 1.1 -4.3 2.5 -1.7 1.4 -3.4 2.5 -3.9 2.5 -1.6 0 -11.1 5 -12.3 6.5 -0.7 0.8 -1.7 1.5 -2.3 1.5 -0.5 0 -2.5 1.1 -4.3 2.5 -1.8 1.4 -3.6 2.5 -3.9 2.5 -0.4 0 -4.6 3 -9.4 6.7 -14 10.9 -38.4 36 -49.8 51.3 -11.1 15 -15.3 21.1 -15.3 22.2 0 1.6 3.7 0.7 5.5 -1.2 z  m 571.5 -20.9 c 0 -1.5 -5.5 -11.5 -10.1 -18.2 -5.1 -7.6 -25.3 -28.3 -27.1 -27.7 -0.7 0.3 -2.9 4.9 -5 10.4 -2 5.4 -4.6 11.6 -5.8 13.7 -2.4 4.7 -2.6 6.7 -0.4 6.7 2.9 0 18.9 4.3 23.4 6.2 2.5 1.1 5.9 2.6 7.5 3.3 1.7 0.7 5.5 2.4 8.5 3.8 5.7 2.7 9 3.3 9 1.8 z "/>
  <path d="M1156.7 1433.3 C 1156.7 1445.2 1147.1 1454.7 1135.3 1454.7 1123.5 1454.7 1114 1445.2 1114 1433.3 1114 1421.5 1123.5 1412 1135.3 1412 1147.1 1412 1156.7 1421.5 1156.7 1433.3 Z M1128.8 1453.3  M1146 1430.7 C 1146 1425.9 1142 1421.9 1137.2 1421.9 1132.3 1421.9 1128.3 1425.9 1128.3 1430.7 1128.3 1435.6 1132.3 1439.5 1137.2 1439.5 1142 1439.5 1146 1435.6 1146 1430.7 Z M1143.7 1436.1 "/>
  <path d="M 833.2 838.8 c -0.7 -0.7 -1.2 -2.3 -1.2 -3.7 0.1 -3.1 2.3 -11.7 3.3 -12.7 0.4 -0.4 0.7 -1.3 0.7 -2.1 0 -2.1 4 -10.2 8.5 -17.3 4.4 -6.9 32.4 -34.2 44.4 -43.3 12.1 -9.3 40.9 -25.7 44.9 -25.7 1 0 2.7 -0.9 3.7 -2 1 -1.1 2.6 -2 3.6 -2 1 0 2.1 -0.4 2.4 -1 0.3 -0.5 2.1 -1 3.8 -1 2 0 4.7 -1.2 7.1 -3 3.4 -2.6 4.8 -3 10.2 -3 5.2 0 6.5 0.3 7.3 1.9 0.8 1.4 0.5 2.3 -1.3 4 -1.2 1.1 -2.6 2.1 -3 2.1 -0.4 0 -4.7 1.9 -9.4 4.2 -9.2 4.4 -23.6 13.6 -31.3 20 -2.6 2.1 -4.9 3.8 -5.3 3.8 -0.3 0 -5.2 3.7 -10.9 8.3 -5.7 4.5 -13.8 10.9 -18.1 14.2 -17.1 13.1 -28.1 24.1 -38.1 38 -15.3 21.3 -17.9 23.7 -21.3 20.3 z "/>
  <path d="M 1039 798.7 c 0 -1.4 1.7 -3.9 4.3 -6.3 5.7 -5.4 9 -7.4 12.7 -7.4 4.8 0 3.8 3.1 -3.5 9.9 -5.4 5 -7.2 6.1 -10 6.1 -3 0 -3.5 -0.3 -3.5 -2.3 z "/>
  <path d="M 811.6 763.8 c -3.5 -4.9 -2.5 -6.4 15.7 -24.4 9.4 -9.4 20.1 -19 23.7 -21.4 12.2 -8.2 32 -17.7 45.5 -21.7 2.8 -0.8 6 -1.9 7.3 -2.4 1.3 -0.5 3.4 -0.9 4.8 -0.9 1.3 0 3.2 -0.4 4.2 -0.9 3.2 -1.6 16.1 -3.1 27.7 -3.1 10.3 0 11.5 0.2 12.5 1.9 2.5 4.7 -0.1 10.1 -4.8 10.1 -1.1 0 -2.4 0.5 -2.7 1 -0.3 0.6 -2.8 1 -5.5 1 -2.7 0 -5.2 0.5 -5.5 1 -0.3 0.6 -2.8 1 -5.5 1 -2.7 0 -5.2 0.5 -5.5 1 -0.3 0.6 -1.9 1 -3.5 1 -1.6 0 -3.2 0.5 -3.5 1 -0.3 0.6 -1.5 1 -2.6 1 -1.9 0 -2.8 0.4 -7.6 2.8 -1.3 0.7 -2.8 1.2 -3.5 1.2 -0.7 0 -5.1 1.8 -9.8 4.1 -26.1 12.4 -35.6 18.2 -54.5 33.9 -15.1 12.5 -18.7 15 -22.1 15 -2.3 0 -3.8 -0.7 -4.8 -2.2 z "/>
  <path d="M 1348.5 752.3 c -6.2 -5.4 -5.6 -8.3 1.9 -8.3 4.3 0 5.8 0.5 8.6 2.9 2.9 2.5 3.3 3.2 2.4 4.8 -1.6 2.6 -10.1 3 -12.9 0.6 z "/>
  <path d="M 1029.6 722.8 c -1.4 -1.3 -3.4 -3.9 -4.5 -5.9 -1.9 -3.7 -1.9 -3.7 0.3 -5.8 5.1 -4.8 17.4 -0.5 17.6 6.1 0 2 -6.8 7.8 -9.2 7.8 -0.9 0 -2.8 -1 -4.2 -2.2 z "/>
  <path d="M 1074.6 704.8 c -1.5 -2.1 -1.4 -2.4 1.1 -5.1 2.4 -2.4 3.4 -2.7 7.3 -2.5 4 0.3 4.5 0.6 4.8 2.9 0.7 5.6 -10 9.4 -13.2 4.7 z "/>
  <path d="M 1347 688.4 c -2.9 -1.8 -7 -7.6 -7 -9.8 0 -2.2 4.9 -5.6 8.1 -5.6 6.1 0 12.9 5 12.9 9.5 0 5.2 -9.1 9 -14 5.9 z "/>
  <path d="M 1279 669.9 c -4.3 -2.7 -5 -3.6 -5 -7.5 0 -5 2.5 -6.4 11.2 -6.4 6.5 0 7.7 0.3 9.6 2.3 2.9 3.1 2.8 6.3 -0.4 10.4 -2.2 2.9 -3 3.3 -7.2 3.3 -3 0 -6 -0.8 -8.2 -2.1 z "/>
  <path d="M1002.7 610.4 C 1002.7 633.9 983.7 652.9 960.2 652.9 936.7 652.9 917.7 633.9 917.7 610.4 917.7 586.9 936.7 567.9 960.2 567.9 983.7 567.9 1002.7 586.9 1002.7 610.4 Z M949.4 652  M979.9 588.1 C 979.9 583.5 976.1 579.7 971.4 579.7 966.8 579.7 963 583.5 963 588.1 963 592.8 966.8 596.6 971.4 596.6 976.1 596.6 979.9 592.8 979.9 588.1 Z M977.4 593.7 "/>
  <path d="M 887.7 564.3 c -1.4 -1.3 -0.6 -12 1.3 -19.7 3.5 -13.7 7.7 -21.1 17.7 -30.7 11.9 -11.4 16 -13.3 29 -13.7 11.4 -0.4 13.4 0.3 20.1 7.7 2.6 2.8 3.2 4.2 2.7 6.1 -0.4 1.4 -0.9 4.2 -1.2 6.3 -0.9 6.8 -5.2 7 -10.5 0.6 -2.7 -3.1 -2.8 -3.2 -9.6 -2.7 -5.6 0.4 -7.8 1.1 -11.3 3.6 -4.7 3.3 -10.7 9.3 -15.6 15.7 -4.8 6.3 -15.3 22.3 -15.3 23.3 0 2.5 -5.6 5.2 -7.3 3.5 z "/>
  <path d="M 1276.6 508.2 c -15.1 -14.5 -19.1 -16.5 -24.6 -12.2 -5.1 4 -12 1.6 -12 -4.1 0 -2.5 3.3 -6.2 7.7 -8.6 3.3 -1.9 19.3 -1.7 22.9 0.2 4.4 2.2 14.2 12.3 18.5 18.9 5.6 8.5 5 13.6 -1.4 13.6 -2.3 0 -4.7 -1.7 -11.1 -7.8 z "/>
  <path d="M1129.9 311.1 C 1129.9 333.5 1111.8 351.6 1089.5 351.6 1067.2 351.6 1049.1 333.5 1049.1 311.1 1049.1 288.8 1067.2 270.7 1089.5 270.7 1111.8 270.7 1129.9 288.8 1129.9 311.1 Z M1081 350.4  M1106.2 313 C 1106.2 301.4 1096.7 292 1085.1 292 1073.5 292 1064.1 301.4 1064.1 313 1064.1 324.7 1073.5 334.1 1085.1 334.1 1096.7 334.1 1106.2 324.7 1106.2 313 Z M1097.1 330.3 "/>
 </g>
</svg>